<?xml version="1.0" encoding="UTF-8" standalone="no"?>
<!-- Generator: Adobe Illustrator 15.0.3, SVG Export Plug-In . SVG Version: 6.00 Build 0)  -->

<svg
   version="1.1"
   id="Ebene_1"
   x="0px"
   y="0px"
   width="316"
   height="316"
   viewBox="0 0 316.00001 316.00001"
   enable-background="new 0 0 322.482 320.982"
   xml:space="preserve"
   sodipodi:docname="111.svg"
   inkscape:version="1.2.2 (732a01da63, 2022-12-09)"
   xmlns:inkscape="http://www.inkscape.org/namespaces/inkscape"
   xmlns:sodipodi="http://sodipodi.sourceforge.net/DTD/sodipodi-0.dtd"
   xmlns="http://www.w3.org/2000/svg"
   xmlns:svg="http://www.w3.org/2000/svg"><defs
   id="defs441" /><sodipodi:namedview
   id="namedview439"
   pagecolor="#ffffff"
   bordercolor="#000000"
   borderopacity="0.25"
   inkscape:showpageshadow="2"
   inkscape:pageopacity="0.0"
   inkscape:pagecheckerboard="0"
   inkscape:deskcolor="#d1d1d1"
   showgrid="false"
   inkscape:zoom="1.3622282"
   inkscape:cx="96.165975"
   inkscape:cy="187.19331"
   inkscape:window-width="1366"
   inkscape:window-height="705"
   inkscape:window-x="-8"
   inkscape:window-y="-8"
   inkscape:window-maximized="1"
   inkscape:current-layer="Ebene_1" />
<path
   d="m 158.43743,69.526526 c -49.10291,0 -88.906786,39.805254 -88.906786,88.909824 0,49.10457 39.803876,88.90983 88.906786,88.90983 49.10288,0 88.9068,-39.80526 88.9068,-88.90983 0,-49.10457 -39.80496,-88.909824 -88.9068,-88.909824 z m 76.2844,108.835114 -13.60236,-0.68704 -0.67225,2.84933 15.14917,9.84831 v 0 l -17.74236,-3.89676 -1.24127,2.58274 9.45494,9.66074 -12.56233,-4.39517 -0.72811,0.81243 8.50976,10.90417 -12.30312,-5.83882 -1.71227,2.37409 10.22624,14.89156 v 0 l -14.8984,-10.38889 -2.13377,1.91044 5.0378,12.54696 -9.92174,-8.86832 -0.98628,0.47207 3.6901,13.33094 -9.13251,-10.10649 -2.49097,1.53848 3.75121,17.67238 v 0 l -9.78896,-15.29829 -2.70488,0.94731 -0.14542,13.51956 -5.77431,-11.99162 -1.08849,0.0589 -1.69332,13.72716 -4.56889,-12.82727 -2.89348,0.46682 -3.29706,17.76193 v 0 l -3.18852,-17.87889 -2.86189,-0.16229 -5.30647,12.43631 -0.74815,-13.28774 -1.03052,-0.36248 -6.8154,12.03273 0.68807,-13.59966 -2.85555,-0.6744 -9.84061,15.14867 v 0 l 3.89346,-17.73772 -2.57947,-1.24342 -9.66042,9.45737 4.39186,-12.56381 -0.81346,-0.72498 -10.90063,8.50374 5.83966,-12.29722 -2.37716,-1.71866 -14.888926,10.22976 v 0 l 10.384306,-14.8968 -1.90933,-2.13806 -12.540187,5.04112 8.863817,-9.92628 -0.47313,-0.98314 -13.327319,3.68916 10.104029,-9.12861 -1.539468,-2.50054 -17.672831,3.75556 v 0 l 15.293541,-9.78931 -0.939905,-2.70602 -13.518055,-0.14014 11.987021,-5.77981 -0.06219,-1.08851 -13.722477,-1.69338 12.825762,-4.56482 -0.465733,-2.89886 -17.762395,-3.29506 v 0 l 17.87514,-3.18969 0.165428,-2.85987 -12.432726,-5.30456 13.284121,-0.75027 0.360371,-1.03056 -12.028107,-6.81563 13.596032,0.68493 0.677527,-2.85354 -15.150235,-9.83988 v 0 l 17.736048,3.89255 1.245481,-2.57641 -9.454942,-9.66181 12.561272,4.38991 0.72496,-0.81244 -8.50238,-10.90206 12.29784,5.84092 1.71755,-2.37831 -10.230465,-14.889422 v 0 l 14.895245,10.383602 2.13693,-1.90518 -5.03885,-12.541667 9.92385,8.863057 0.98205,-0.4742 -3.68483,-13.325659 9.12829,10.102259 2.49834,-1.539524 -3.75437,-17.672372 v 0 l 9.78898,15.293013 2.70487,-0.944148 0.14329,-13.513244 5.7775,11.985309 1.08744,-0.06219 1.69438,-13.720826 4.56572,12.826193 2.89875,-0.465751 3.2939,-17.763 v 0 l 3.18748,17.87364 2.85871,0.164382 5.30754,-12.432093 0.75128,13.284574 1.02737,0.358279 6.81646,-12.024298 -0.68913,13.596487 2.84819,0.671239 9.84585,-15.14655 v 0 l -3.89134,17.740862 2.57421,1.242368 9.66673,-9.45631 -4.39608,12.56276 0.81664,0.72813 10.90063,-8.516367 -5.83965,12.306697 2.37294,1.71129 14.89524,-10.22556 v 0 l -10.38853,14.90102 1.90618,2.13172 12.54757,-5.03374 -8.86907,9.92313 0.47207,0.98421 13.33258,-3.69445 -10.10297,9.13599 1.53841,2.49105 17.67283,-3.75239 v 0 l -15.30199,9.79246 0.9494,2.70393 13.51487,0.14644 -11.98806,5.77455 0.0622,1.08536 13.72879,1.69126 -12.83208,4.57431 0.46785,2.88832 17.76451,3.29927 v 0 l -17.88779,3.1897 -0.15385,2.85986 12.43273,5.30771 -13.28834,0.74923 -0.35932,1.02951 z"
   id="path284"
   style="stroke-width:0.999996" />
<polygon
   fill="none"
   points="162.436,82.816 162.436,82.816 159.309,99.674 156.558,100.117 152.224,87.945 150.617,100.967 149.585,101.025 144.101,89.65 143.965,102.475 141.398,103.37 132.109,88.856 132.109,88.856 135.672,105.628 133.301,107.09 124.639,97.503 128.135,110.147 127.204,110.597 117.785,102.185 122.567,114.089 120.539,115.897 106.404,106.043 106.404,106.043 116.112,120.174 114.482,122.431 102.81,116.888 110.88,127.233 110.191,128.005 98.271,123.839 107.244,133.007 106.062,135.453 89.231,131.758 89.231,131.758 103.609,141.098 102.965,143.806 90.062,143.156 101.478,149.622 101.135,150.6 88.528,151.311 100.326,156.345 100.17,159.06 83.207,162.086 83.207,162.086 100.064,165.214 100.506,167.965 88.334,172.297 101.356,173.904 101.415,174.937 90.039,180.423 102.867,180.555 103.76,183.124 89.247,192.413 89.247,192.413 106.018,188.849 107.479,191.222 97.89,199.885 110.538,196.385 110.987,197.317 102.575,206.736 114.477,201.952 116.288,203.982 106.433,218.118 106.433,218.118 120.563,208.411 122.82,210.042 117.278,221.712 127.623,213.641 128.395,214.33 124.227,226.253 133.395,217.277 135.843,218.458 132.147,235.29 132.147,235.29 141.487,220.915 144.197,221.555 143.544,234.462 150.011,223.042 150.989,223.386 151.699,235.997 156.735,224.195 159.451,224.349 162.477,241.314 162.477,241.314 165.606,224.46 168.352,224.016 172.688,236.189 174.296,223.162 175.329,223.106 180.809,234.486 180.947,221.656 183.514,220.757 192.804,235.272 192.804,235.272 189.244,218.503 191.609,217.043 200.276,226.634 196.774,213.982 197.71,213.534 207.126,221.95 202.344,210.044 204.37,208.229 218.509,218.087 218.509,218.087 208.804,203.956 210.429,201.704 222.106,207.245 214.028,196.896 214.719,196.125 226.641,200.296 217.669,191.128 218.846,188.677 235.684,192.374 235.684,192.374 221.307,183.029 221.945,180.325 234.854,180.976 223.434,174.51 223.774,173.533 236.385,172.823 224.587,167.785 224.734,165.071 241.707,162.043 224.849,158.912 224.405,156.171 236.583,151.831 223.552,150.225 223.493,149.194 234.872,143.714 222.045,143.575 221.144,141.009 235.665,131.716 218.894,135.277 217.434,132.912 227.022,124.242 214.369,127.749 213.921,126.816 222.338,117.398 210.429,122.176 208.62,120.152 218.478,106.01 204.344,115.715 202.091,114.092 207.634,102.412 197.288,110.494 196.513,109.803 200.685,97.882 191.51,106.854 189.068,105.677 192.76,88.839 183.417,103.214 180.714,102.577 181.37,89.674 174.899,101.085 173.924,100.745 173.212,88.137 168.175,99.935 165.461,99.779 "
   id="polygon286"
   transform="matrix(1.0537101,0,0,1.0537462,-12.746216,-12.341119)"
   style="stroke-width:0.94901" />
<ellipse
   id="Innerster_Ring"
   fill="none"
   stroke="#000000"
   stroke-width="3.5"
   cx="158.42271"
   cy="158.43741"
   rx="22.522003"
   ry="22.522772" />
<path
   id="Innerer_Ring"
   fill="none"
   stroke="#000000"
   stroke-width="3.5"
   d="m 259.51563,158.43635 c 0,55.82642 -45.25054,101.07849 -101.07504,101.07849 -55.82662,0 -101.077135,-45.25103 -101.077135,-101.07849 0,-55.82431 45.248395,-101.077429 101.077135,-101.077429 55.8224,0 101.07504,45.254179 101.07504,101.077429 z" />
<g
   id="g333"
   transform="matrix(1.0537101,0,0,1.0537462,-12.746216,-12.341119)"
   style="stroke-width:0.94901">
	<path
   id="Innerer_Ring_1_"
   fill="none"
   d="M 286.858,170.765 C 282.05,239.467 222.462,291.263 153.758,286.458 85.053,281.654 33.258,222.068 38.062,153.367 42.868,84.667 102.45,32.866 171.156,37.669 239.86,42.476 291.66,102.063 286.858,170.765 Z"
   style="stroke-width:1.06242" />
	<path
   d="m 41.232,188.731 c -0.188,0.104 -0.342,0.167 -0.464,0.189 -0.121,0.023 -0.221,0.005 -0.294,-0.058 -0.074,-0.063 -0.135,-0.178 -0.179,-0.342 -0.045,-0.164 -0.088,-0.388 -0.132,-0.668 -0.043,-0.279 -0.071,-0.505 -0.084,-0.674 -0.014,-0.171 -0.011,-0.301 0.008,-0.392 0.02,-0.091 0.053,-0.161 0.1,-0.21 0.048,-0.051 0.109,-0.1 0.186,-0.146 l 4.039,-2.174 -1.14,-7.3 -4.443,-0.78 c -0.086,-0.015 -0.162,-0.039 -0.229,-0.075 -0.064,-0.035 -0.125,-0.095 -0.18,-0.174 -0.054,-0.078 -0.104,-0.196 -0.146,-0.353 -0.043,-0.156 -0.083,-0.359 -0.123,-0.613 -0.041,-0.262 -0.062,-0.479 -0.065,-0.648 -0.004,-0.171 0.021,-0.295 0.073,-0.373 0.054,-0.078 0.141,-0.124 0.264,-0.14 0.123,-0.015 0.289,-0.001 0.5,0.041 l 17.229,3.343 c 0.104,0.021 0.193,0.057 0.268,0.104 0.072,0.048 0.135,0.127 0.188,0.233 0.053,0.106 0.103,0.248 0.144,0.423 0.041,0.175 0.083,0.396 0.124,0.669 0.046,0.288 0.077,0.529 0.094,0.723 0.016,0.19 0.015,0.351 -0.003,0.474 -0.02,0.123 -0.056,0.223 -0.113,0.296 -0.059,0.073 -0.133,0.138 -0.228,0.188 z m 13.215,-9.804 -0.002,-0.014 -9.223,-1.66 0.952,6.105 z"
   id="path291"
   style="stroke-width:0.94901" />
	<path
   d="m 54.395,203.737 c -1.467,0.463 -2.809,0.678 -4.021,0.646 -1.214,-0.029 -2.294,-0.293 -3.241,-0.786 -0.946,-0.494 -1.765,-1.208 -2.451,-2.146 -0.688,-0.936 -1.261,-2.128 -1.716,-3.577 l -1.129,-3.59 c -0.062,-0.201 -0.057,-0.412 0.022,-0.635 0.08,-0.223 0.29,-0.386 0.63,-0.492 l 15.118,-4.754 c 0.34,-0.106 0.605,-0.093 0.798,0.045 0.191,0.137 0.319,0.305 0.383,0.506 l 1.207,3.839 c 0.461,1.467 0.66,2.768 0.601,3.898 -0.062,1.133 -0.341,2.152 -0.836,3.062 -0.497,0.91 -1.196,1.701 -2.098,2.373 -0.904,0.674 -1.992,1.211 -3.267,1.611 z m -0.838,-2.341 c 0.918,-0.289 1.735,-0.67 2.454,-1.146 0.719,-0.476 1.29,-1.046 1.715,-1.712 0.423,-0.666 0.68,-1.421 0.771,-2.266 0.089,-0.846 -0.05,-1.853 -0.417,-3.021 l -0.722,-2.293 -13.192,4.146 0.729,2.318 c 0.34,1.082 0.764,1.953 1.268,2.61 0.505,0.656 1.113,1.146 1.831,1.469 0.715,0.322 1.532,0.476 2.453,0.459 0.921,-0.014 1.958,-0.202 3.11,-0.564 z"
   id="path293"
   style="stroke-width:0.94901" />
	<path
   d="m 51.129,217.393 c -0.105,0.011 -0.201,0.001 -0.288,-0.027 -0.086,-0.03 -0.17,-0.089 -0.253,-0.177 -0.082,-0.087 -0.168,-0.208 -0.258,-0.361 -0.09,-0.155 -0.191,-0.353 -0.309,-0.592 -0.087,-0.182 -0.163,-0.342 -0.225,-0.479 -0.062,-0.139 -0.106,-0.261 -0.139,-0.366 -0.032,-0.106 -0.055,-0.201 -0.066,-0.28 -0.014,-0.079 -0.016,-0.152 -0.006,-0.219 0.009,-0.064 0.029,-0.123 0.062,-0.175 0.032,-0.051 0.074,-0.104 0.128,-0.16 l 12.343,-12.405 c 0.148,-0.152 0.278,-0.26 0.388,-0.315 0.109,-0.06 0.21,-0.063 0.306,-0.019 0.093,0.048 0.188,0.146 0.285,0.306 0.096,0.156 0.211,0.375 0.347,0.654 0.111,0.23 0.194,0.418 0.247,0.562 0.055,0.143 0.082,0.258 0.084,0.349 0.002,0.09 -0.015,0.166 -0.049,0.229 -0.036,0.062 -0.087,0.131 -0.154,0.204 l -11.255,11.088 0.006,0.014 15.601,-2.022 c 0.104,-0.02 0.189,-0.025 0.264,-0.021 0.073,0.005 0.146,0.041 0.22,0.106 0.074,0.065 0.151,0.171 0.235,0.312 0.084,0.143 0.188,0.338 0.305,0.585 0.124,0.255 0.211,0.463 0.263,0.621 0.052,0.157 0.061,0.277 0.028,0.358 -0.031,0.082 -0.105,0.145 -0.224,0.186 -0.117,0.041 -0.282,0.071 -0.495,0.095 z"
   id="path295"
   style="stroke-width:0.94901" />
	<path
   d="m 62.947,236.205 c -0.128,0.171 -0.241,0.293 -0.343,0.364 -0.103,0.07 -0.198,0.095 -0.292,0.066 -0.095,-0.025 -0.194,-0.104 -0.303,-0.235 -0.109,-0.131 -0.24,-0.315 -0.396,-0.553 -0.155,-0.238 -0.274,-0.433 -0.355,-0.58 -0.081,-0.148 -0.132,-0.271 -0.153,-0.358 -0.021,-0.091 -0.021,-0.168 0.004,-0.232 0.022,-0.062 0.06,-0.135 0.108,-0.211 L 64,230.82 l -4.053,-6.18 -4.369,1.125 c -0.083,0.021 -0.163,0.029 -0.238,0.023 -0.074,-0.006 -0.152,-0.033 -0.233,-0.084 -0.083,-0.05 -0.176,-0.138 -0.278,-0.261 -0.103,-0.124 -0.226,-0.294 -0.366,-0.509 -0.146,-0.223 -0.255,-0.41 -0.329,-0.562 -0.071,-0.155 -0.103,-0.277 -0.086,-0.371 0.017,-0.092 0.076,-0.171 0.183,-0.233 0.105,-0.062 0.265,-0.12 0.473,-0.169 l 17.071,-4.066 c 0.104,-0.024 0.199,-0.029 0.286,-0.016 0.085,0.015 0.175,0.061 0.27,0.135 0.094,0.076 0.193,0.186 0.304,0.326 0.11,0.142 0.239,0.327 0.391,0.559 0.161,0.245 0.288,0.451 0.382,0.619 0.095,0.169 0.157,0.312 0.192,0.433 0.033,0.119 0.041,0.226 0.018,0.316 -0.021,0.091 -0.064,0.18 -0.128,0.266 z m 7.991,-14.386 -0.007,-0.013 -9.087,2.297 3.388,5.168 z"
   id="path297"
   style="stroke-width:0.94901" />
	<path
   d="m 74.902,249.742 c -0.136,0.122 -0.271,0.202 -0.409,0.242 -0.136,0.04 -0.27,0.052 -0.396,0.031 -0.127,-0.02 -0.247,-0.062 -0.356,-0.13 -0.109,-0.066 -0.204,-0.146 -0.287,-0.237 l -0.522,-0.581 c -0.164,-0.184 -0.289,-0.359 -0.375,-0.53 -0.085,-0.171 -0.135,-0.362 -0.146,-0.574 -0.014,-0.212 0.011,-0.456 0.07,-0.731 0.061,-0.275 0.16,-0.604 0.301,-0.979 l 3.897,-10.787 c 0.198,-0.56 0.414,-1.138 0.647,-1.733 0.232,-0.597 0.468,-1.167 0.704,-1.713 l -0.018,-0.021 c -0.479,0.454 -0.971,0.914 -1.476,1.38 -0.505,0.465 -1.011,0.925 -1.514,1.377 l -7.979,7.167 c -0.048,0.043 -0.106,0.07 -0.176,0.081 -0.07,0.012 -0.146,-0.007 -0.233,-0.054 -0.086,-0.048 -0.186,-0.119 -0.304,-0.216 -0.117,-0.097 -0.253,-0.229 -0.408,-0.401 -0.155,-0.173 -0.273,-0.322 -0.356,-0.449 -0.083,-0.127 -0.143,-0.231 -0.176,-0.318 -0.035,-0.086 -0.042,-0.163 -0.022,-0.23 0.02,-0.068 0.05,-0.124 0.098,-0.167 l 12.2,-10.957 c 0.271,-0.245 0.536,-0.342 0.791,-0.291 0.253,0.051 0.464,0.168 0.628,0.352 l 0.775,0.863 c 0.184,0.203 0.318,0.391 0.408,0.558 0.089,0.168 0.145,0.343 0.164,0.521 0.021,0.18 0.006,0.383 -0.042,0.608 -0.049,0.229 -0.127,0.492 -0.238,0.795 l -3.02,8.312 c -0.182,0.511 -0.362,1.005 -0.541,1.484 -0.177,0.479 -0.355,0.949 -0.534,1.406 -0.179,0.459 -0.354,0.911 -0.526,1.356 -0.171,0.445 -0.346,0.892 -0.523,1.336 l 0.01,0.012 c 0.524,-0.497 1.079,-1.01 1.657,-1.535 0.578,-0.525 1.139,-1.03 1.677,-1.516 l 7.172,-6.44 c 0.048,-0.043 0.104,-0.067 0.172,-0.076 0.068,-0.009 0.146,0.009 0.238,0.05 0.092,0.041 0.193,0.109 0.308,0.21 0.114,0.1 0.253,0.238 0.412,0.418 0.144,0.158 0.259,0.302 0.349,0.43 0.089,0.127 0.147,0.235 0.177,0.328 0.027,0.093 0.033,0.172 0.019,0.236 -0.014,0.064 -0.046,0.119 -0.095,0.162 z"
   id="path299"
   style="stroke-width:0.94901" />
	<path
   d="m 89.627,260.422 c -0.094,0.112 -0.181,0.207 -0.257,0.286 -0.077,0.079 -0.15,0.144 -0.222,0.19 -0.069,0.049 -0.142,0.086 -0.209,0.111 -0.068,0.025 -0.168,0.045 -0.297,0.058 -0.129,0.013 -0.366,-0.004 -0.711,-0.047 -0.346,-0.043 -0.742,-0.136 -1.189,-0.273 -0.449,-0.143 -0.93,-0.344 -1.44,-0.607 -0.513,-0.266 -1.025,-0.609 -1.539,-1.038 -0.888,-0.735 -1.565,-1.551 -2.034,-2.438 -0.471,-0.891 -0.716,-1.833 -0.74,-2.828 -0.022,-0.996 0.182,-2.03 0.615,-3.104 0.433,-1.073 1.109,-2.163 2.027,-3.27 0.943,-1.134 1.929,-2.022 2.957,-2.668 1.03,-0.646 2.063,-1.056 3.104,-1.232 1.04,-0.178 2.062,-0.122 3.067,0.166 1.005,0.287 1.955,0.803 2.849,1.545 0.396,0.327 0.749,0.684 1.062,1.066 0.312,0.385 0.579,0.765 0.803,1.141 0.224,0.376 0.396,0.739 0.521,1.094 0.124,0.354 0.191,0.615 0.209,0.789 0.016,0.175 0.018,0.299 0.005,0.371 -0.014,0.071 -0.039,0.148 -0.076,0.229 -0.039,0.081 -0.089,0.173 -0.154,0.271 -0.064,0.102 -0.149,0.215 -0.256,0.342 -0.116,0.142 -0.224,0.255 -0.319,0.342 -0.095,0.087 -0.188,0.151 -0.271,0.195 -0.084,0.043 -0.157,0.062 -0.224,0.062 -0.065,0 -0.127,-0.023 -0.184,-0.07 -0.1,-0.082 -0.182,-0.266 -0.243,-0.55 -0.062,-0.284 -0.165,-0.627 -0.309,-1.022 -0.141,-0.397 -0.355,-0.831 -0.643,-1.302 -0.284,-0.471 -0.708,-0.938 -1.267,-1.4 -0.609,-0.506 -1.265,-0.846 -1.965,-1.018 -0.701,-0.171 -1.426,-0.168 -2.171,0.01 -0.745,0.179 -1.498,0.525 -2.258,1.044 -0.759,0.519 -1.501,1.214 -2.226,2.086 -0.722,0.866 -1.265,1.71 -1.628,2.53 -0.365,0.822 -0.56,1.603 -0.58,2.341 -0.021,0.738 0.129,1.435 0.448,2.086 0.319,0.652 0.803,1.247 1.445,1.781 0.544,0.452 1.077,0.781 1.596,0.984 0.519,0.204 0.989,0.344 1.413,0.415 0.426,0.073 0.784,0.119 1.08,0.14 0.296,0.02 0.495,0.071 0.603,0.16 0.051,0.042 0.084,0.087 0.102,0.139 0.019,0.051 0.014,0.114 -0.016,0.19 -0.029,0.077 -0.082,0.174 -0.158,0.288 -0.08,0.114 -0.186,0.252 -0.32,0.415 z"
   id="path301"
   style="stroke-width:0.94901" />
	<path
   d="m 100.719,269.45 c -0.089,0.14 -0.175,0.256 -0.257,0.351 -0.082,0.096 -0.164,0.165 -0.246,0.209 -0.083,0.046 -0.159,0.067 -0.229,0.066 -0.07,-0.001 -0.135,-0.021 -0.196,-0.062 l -7.199,-4.574 c -0.177,-0.111 -0.307,-0.278 -0.389,-0.499 -0.083,-0.221 -0.026,-0.481 0.164,-0.782 l 8.5,-13.376 c 0.191,-0.303 0.404,-0.461 0.639,-0.479 0.234,-0.02 0.44,0.027 0.618,0.142 l 7.118,4.521 c 0.062,0.039 0.106,0.091 0.138,0.153 0.03,0.062 0.039,0.139 0.024,0.229 -0.013,0.09 -0.044,0.191 -0.089,0.31 -0.047,0.116 -0.121,0.253 -0.219,0.406 -0.089,0.14 -0.177,0.256 -0.262,0.348 -0.086,0.092 -0.166,0.161 -0.236,0.207 -0.073,0.046 -0.145,0.067 -0.214,0.067 -0.069,-0.002 -0.137,-0.021 -0.198,-0.062 l -5.865,-3.728 -2.99,4.705 5.03,3.196 c 0.062,0.039 0.107,0.093 0.136,0.159 0.028,0.065 0.041,0.143 0.037,0.227 -0.006,0.085 -0.034,0.186 -0.088,0.304 -0.054,0.117 -0.127,0.25 -0.22,0.396 -0.089,0.14 -0.172,0.254 -0.252,0.346 -0.079,0.092 -0.156,0.154 -0.229,0.194 -0.074,0.04 -0.146,0.058 -0.212,0.054 -0.067,-0.007 -0.133,-0.027 -0.194,-0.066 l -5.029,-3.195 -3.41,5.366 5.945,3.777 c 0.062,0.039 0.108,0.091 0.14,0.151 0.03,0.063 0.044,0.143 0.041,0.23 -0.003,0.087 -0.029,0.191 -0.081,0.307 -0.054,0.113 -0.129,0.248 -0.226,0.402 z"
   id="path303"
   style="stroke-width:0.94901" />
	<path
   d="m 123.142,280.454 c -0.028,0.066 -0.07,0.12 -0.127,0.154 -0.057,0.036 -0.135,0.052 -0.231,0.044 -0.101,-0.007 -0.223,-0.028 -0.365,-0.062 -0.145,-0.036 -0.324,-0.1 -0.541,-0.189 -0.199,-0.085 -0.366,-0.167 -0.503,-0.249 -0.133,-0.08 -0.235,-0.153 -0.307,-0.218 -0.069,-0.063 -0.112,-0.131 -0.126,-0.193 -0.014,-0.065 -0.006,-0.133 0.021,-0.199 l 5.999,-14.269 -0.024,-0.012 -11.799,11.903 c -0.051,0.049 -0.106,0.084 -0.17,0.106 -0.064,0.021 -0.147,0.028 -0.249,0.021 -0.102,-0.007 -0.216,-0.03 -0.343,-0.068 -0.128,-0.038 -0.275,-0.095 -0.444,-0.165 -0.178,-0.074 -0.325,-0.146 -0.445,-0.218 -0.119,-0.069 -0.215,-0.138 -0.286,-0.202 -0.073,-0.063 -0.122,-0.129 -0.149,-0.188 -0.029,-0.062 -0.043,-0.121 -0.037,-0.181 l 0.505,-16.649 -0.013,-0.005 -5.999,14.267 c -0.027,0.067 -0.069,0.119 -0.127,0.155 -0.056,0.036 -0.133,0.051 -0.231,0.044 -0.101,-0.008 -0.225,-0.029 -0.371,-0.066 -0.147,-0.037 -0.331,-0.103 -0.548,-0.191 -0.209,-0.09 -0.379,-0.174 -0.509,-0.251 -0.13,-0.08 -0.229,-0.152 -0.302,-0.217 -0.069,-0.063 -0.109,-0.129 -0.117,-0.191 -0.01,-0.062 0,-0.129 0.027,-0.196 l 6.335,-15.062 c 0.148,-0.354 0.351,-0.568 0.603,-0.643 0.252,-0.073 0.495,-0.061 0.727,0.037 l 1.337,0.562 c 0.272,0.115 0.502,0.241 0.688,0.379 0.185,0.138 0.33,0.293 0.438,0.468 0.106,0.175 0.177,0.367 0.209,0.58 0.031,0.212 0.039,0.447 0.021,0.708 l -0.305,13.832 0.063,0.025 9.845,-9.773 c 0.202,-0.214 0.395,-0.386 0.581,-0.517 0.188,-0.132 0.367,-0.222 0.546,-0.271 0.177,-0.05 0.356,-0.062 0.539,-0.041 0.183,0.021 0.38,0.077 0.597,0.168 l 1.4,0.59 c 0.128,0.055 0.242,0.124 0.342,0.211 0.101,0.088 0.174,0.188 0.222,0.303 0.048,0.113 0.071,0.243 0.071,0.388 0,0.145 -0.037,0.306 -0.11,0.481 z"
   id="path305"
   style="stroke-width:0.94901" />
	<path
   d="m 139.377,283.745 c -0.038,0.16 -0.08,0.299 -0.126,0.415 -0.045,0.115 -0.101,0.209 -0.164,0.278 -0.062,0.068 -0.128,0.116 -0.193,0.139 -0.065,0.021 -0.136,0.024 -0.207,0.008 l -8.306,-1.94 c -0.205,-0.048 -0.382,-0.162 -0.531,-0.344 -0.149,-0.181 -0.187,-0.444 -0.104,-0.793 l 3.607,-15.432 c 0.081,-0.349 0.229,-0.569 0.443,-0.665 0.214,-0.096 0.426,-0.119 0.63,-0.071 l 8.212,1.92 c 0.07,0.018 0.131,0.051 0.182,0.1 0.051,0.05 0.083,0.118 0.101,0.207 0.018,0.088 0.021,0.194 0.018,0.319 -0.006,0.127 -0.028,0.278 -0.07,0.457 -0.038,0.16 -0.082,0.299 -0.133,0.413 -0.051,0.115 -0.104,0.206 -0.155,0.272 -0.054,0.068 -0.113,0.112 -0.18,0.135 -0.065,0.021 -0.135,0.024 -0.207,0.009 l -6.767,-1.582 -1.271,5.43 5.805,1.356 c 0.07,0.018 0.131,0.052 0.181,0.104 0.047,0.055 0.084,0.121 0.107,0.201 0.022,0.08 0.028,0.187 0.019,0.314 -0.013,0.129 -0.037,0.276 -0.076,0.445 -0.038,0.161 -0.08,0.299 -0.124,0.408 -0.045,0.111 -0.095,0.198 -0.151,0.261 -0.058,0.062 -0.118,0.104 -0.184,0.12 -0.065,0.019 -0.133,0.019 -0.205,0.001 l -5.805,-1.355 -1.447,6.19 6.859,1.604 c 0.07,0.018 0.132,0.05 0.182,0.101 0.049,0.05 0.088,0.115 0.115,0.203 0.026,0.086 0.034,0.19 0.024,0.314 -0.012,0.128 -0.037,0.28 -0.079,0.458 z"
   id="path307"
   style="stroke-width:0.94901" />
	<path
   d="m 158.053,285.888 c -0.017,0.184 -0.062,0.335 -0.135,0.455 -0.071,0.123 -0.162,0.222 -0.269,0.295 -0.106,0.071 -0.224,0.121 -0.349,0.146 -0.126,0.024 -0.25,0.032 -0.373,0.021 l -0.777,-0.069 c -0.246,-0.021 -0.458,-0.065 -0.637,-0.133 -0.181,-0.066 -0.347,-0.174 -0.499,-0.319 -0.154,-0.146 -0.304,-0.343 -0.447,-0.585 -0.145,-0.242 -0.293,-0.551 -0.446,-0.924 l -4.498,-10.551 c -0.233,-0.545 -0.472,-1.115 -0.707,-1.711 -0.235,-0.597 -0.454,-1.174 -0.651,-1.732 l -0.027,-0.004 c -0.039,0.658 -0.087,1.33 -0.139,2.016 -0.054,0.686 -0.108,1.364 -0.169,2.039 l -0.957,10.684 c -0.007,0.062 -0.031,0.124 -0.074,0.181 -0.044,0.056 -0.113,0.096 -0.208,0.118 -0.094,0.022 -0.217,0.04 -0.369,0.051 -0.15,0.01 -0.342,0.004 -0.572,-0.018 -0.23,-0.022 -0.419,-0.051 -0.566,-0.086 -0.146,-0.036 -0.264,-0.074 -0.347,-0.114 -0.083,-0.039 -0.144,-0.09 -0.176,-0.151 -0.032,-0.062 -0.047,-0.126 -0.041,-0.189 l 1.464,-16.331 c 0.033,-0.365 0.159,-0.616 0.38,-0.752 0.221,-0.138 0.454,-0.194 0.699,-0.173 l 1.157,0.104 c 0.273,0.025 0.499,0.068 0.68,0.132 0.18,0.062 0.338,0.15 0.474,0.271 0.137,0.117 0.266,0.276 0.385,0.477 0.12,0.198 0.243,0.446 0.366,0.742 l 3.454,8.143 c 0.215,0.497 0.419,0.98 0.616,1.454 0.198,0.473 0.387,0.938 0.567,1.396 0.18,0.458 0.36,0.907 0.539,1.353 0.179,0.441 0.354,0.889 0.527,1.336 l 0.014,0.002 c 0.046,-0.724 0.103,-1.475 0.167,-2.254 0.064,-0.78 0.132,-1.529 0.196,-2.25 l 0.859,-9.603 c 0.005,-0.063 0.029,-0.122 0.074,-0.175 0.044,-0.051 0.112,-0.093 0.207,-0.126 0.096,-0.032 0.219,-0.052 0.37,-0.056 0.148,-0.007 0.347,0.003 0.586,0.023 0.213,0.021 0.394,0.045 0.547,0.075 0.151,0.032 0.271,0.072 0.354,0.122 0.083,0.049 0.14,0.103 0.174,0.159 0.033,0.06 0.048,0.12 0.042,0.185 z"
   id="path309"
   style="stroke-width:0.94901" />
	<path
   d="m 174.6,269.55 c 0.009,0.175 0.007,0.324 -0.005,0.453 -0.013,0.13 -0.037,0.232 -0.074,0.312 -0.038,0.08 -0.085,0.141 -0.144,0.18 -0.059,0.04 -0.123,0.062 -0.195,0.064 l -4.992,0.247 0.764,15.391 c 0.003,0.072 -0.013,0.139 -0.047,0.193 -0.031,0.058 -0.095,0.104 -0.185,0.141 -0.092,0.036 -0.211,0.069 -0.359,0.101 -0.149,0.03 -0.339,0.052 -0.567,0.062 -0.219,0.012 -0.406,0.01 -0.562,-0.007 -0.156,-0.016 -0.28,-0.036 -0.374,-0.062 -0.093,-0.026 -0.16,-0.066 -0.198,-0.12 -0.04,-0.054 -0.062,-0.116 -0.063,-0.188 l -0.763,-15.391 -4.994,0.247 c -0.072,0.004 -0.14,-0.011 -0.2,-0.045 -0.062,-0.034 -0.113,-0.088 -0.153,-0.164 -0.041,-0.075 -0.075,-0.177 -0.104,-0.305 -0.027,-0.126 -0.047,-0.276 -0.056,-0.45 -0.009,-0.174 -0.005,-0.328 0.012,-0.462 0.018,-0.133 0.041,-0.242 0.073,-0.326 0.03,-0.084 0.076,-0.146 0.135,-0.187 0.059,-0.038 0.123,-0.062 0.197,-0.063 l 12.343,-0.611 c 0.073,-0.004 0.142,0.013 0.202,0.045 0.062,0.034 0.113,0.092 0.159,0.171 0.045,0.08 0.08,0.188 0.105,0.317 0.018,0.13 0.036,0.283 0.045,0.457 z"
   id="path311"
   style="stroke-width:0.94901" />
	<path
   d="m 198.771,272.143 c 0.354,1.394 0.512,2.689 0.468,3.893 -0.043,1.201 -0.288,2.277 -0.74,3.229 -0.451,0.951 -1.116,1.764 -1.993,2.438 -0.878,0.673 -1.972,1.177 -3.283,1.512 -1.297,0.33 -2.466,0.424 -3.509,0.279 -1.044,-0.146 -1.967,-0.509 -2.771,-1.086 -0.805,-0.579 -1.497,-1.376 -2.076,-2.391 -0.58,-1.016 -1.054,-2.23 -1.413,-3.649 -0.348,-1.357 -0.498,-2.633 -0.453,-3.825 0.045,-1.19 0.298,-2.261 0.756,-3.204 0.459,-0.942 1.126,-1.752 2.004,-2.425 0.877,-0.673 1.973,-1.178 3.284,-1.513 1.269,-0.323 2.424,-0.415 3.46,-0.272 1.037,0.143 1.962,0.498 2.773,1.07 0.812,0.571 1.51,1.357 2.091,2.357 0.577,0.997 1.045,2.194 1.402,3.587 z m -2.381,0.777 c -0.249,-0.976 -0.567,-1.858 -0.954,-2.653 -0.388,-0.794 -0.859,-1.448 -1.421,-1.961 -0.562,-0.515 -1.223,-0.857 -1.982,-1.032 -0.762,-0.174 -1.64,-0.135 -2.632,0.119 -0.991,0.253 -1.775,0.65 -2.354,1.195 -0.579,0.544 -0.999,1.182 -1.261,1.909 -0.264,0.729 -0.38,1.529 -0.351,2.405 0.03,0.877 0.162,1.771 0.396,2.686 0.258,1.012 0.579,1.921 0.965,2.729 0.388,0.81 0.855,1.472 1.413,1.984 0.557,0.516 1.212,0.857 1.968,1.028 0.757,0.171 1.641,0.127 2.649,-0.131 1.001,-0.256 1.795,-0.656 2.383,-1.203 0.586,-0.547 1.007,-1.189 1.263,-1.932 0.254,-0.739 0.363,-1.551 0.327,-2.431 -0.035,-0.874 -0.173,-1.78 -0.409,-2.712 z"
   id="path313"
   style="stroke-width:0.94901" />
	<path
   d="m 208.311,259.952 c 0.065,0.159 0.114,0.304 0.146,0.429 0.032,0.126 0.042,0.233 0.028,0.323 -0.014,0.089 -0.04,0.162 -0.082,0.218 -0.041,0.059 -0.091,0.099 -0.149,0.122 l -6.02,2.479 2.3,5.587 5.689,-2.341 c 0.059,-0.023 0.121,-0.033 0.188,-0.025 0.066,0.008 0.136,0.035 0.206,0.087 0.068,0.05 0.137,0.128 0.2,0.235 0.063,0.105 0.134,0.249 0.204,0.428 0.066,0.16 0.115,0.303 0.146,0.424 0.031,0.121 0.039,0.228 0.025,0.314 -0.013,0.09 -0.037,0.165 -0.077,0.227 -0.039,0.062 -0.091,0.104 -0.148,0.127 l -5.688,2.343 2.816,6.846 c 0.023,0.06 0.03,0.123 0.021,0.19 -0.013,0.069 -0.055,0.138 -0.126,0.2 -0.073,0.064 -0.174,0.136 -0.3,0.213 -0.127,0.077 -0.301,0.16 -0.521,0.251 -0.202,0.083 -0.381,0.146 -0.533,0.184 -0.151,0.038 -0.276,0.061 -0.374,0.063 -0.097,0.005 -0.174,-0.013 -0.229,-0.054 -0.055,-0.041 -0.098,-0.092 -0.12,-0.15 l -6.264,-15.214 c -0.135,-0.33 -0.145,-0.597 -0.022,-0.799 0.119,-0.203 0.276,-0.345 0.473,-0.426 l 7.392,-3.041 c 0.06,-0.023 0.123,-0.03 0.191,-0.021 0.067,0.013 0.142,0.046 0.214,0.104 0.074,0.061 0.146,0.146 0.212,0.264 0.069,0.116 0.136,0.252 0.202,0.413 z"
   id="path315"
   style="stroke-width:0.94901" />
	<path
   d="m 232.482,264.162 c 0.097,0.154 0.169,0.291 0.22,0.404 0.05,0.114 0.08,0.221 0.092,0.314 0.012,0.096 10e-4,0.178 -0.026,0.243 -0.028,0.065 -0.079,0.121 -0.147,0.164 l -6.673,4.146 c -0.179,0.11 -0.385,0.155 -0.619,0.136 -0.232,-0.021 -0.444,-0.186 -0.635,-0.487 l -8.687,-13.973 c -0.037,-0.062 -0.059,-0.126 -0.055,-0.191 0.001,-0.065 0.032,-0.137 0.094,-0.213 0.062,-0.075 0.151,-0.163 0.271,-0.267 0.119,-0.103 0.272,-0.21 0.459,-0.325 0.195,-0.12 0.363,-0.212 0.503,-0.271 0.142,-0.061 0.26,-0.102 0.354,-0.123 0.095,-0.02 0.173,-0.018 0.231,0.011 0.061,0.026 0.109,0.071 0.147,0.136 l 8.113,13.051 5.41,-3.364 c 0.07,-0.044 0.144,-0.062 0.215,-0.06 0.07,0.004 0.146,0.026 0.223,0.07 0.075,0.044 0.155,0.115 0.238,0.215 0.085,0.101 0.175,0.228 0.272,0.384 z"
   id="path317"
   style="stroke-width:0.94901" />
	<path
   d="m 243.354,255.832 c 0.104,0.129 0.187,0.248 0.247,0.355 0.062,0.107 0.103,0.209 0.115,0.303 0.017,0.093 0.012,0.173 -0.014,0.237 -0.024,0.064 -0.063,0.121 -0.122,0.167 l -6.69,5.286 c -0.165,0.131 -0.365,0.197 -0.603,0.202 -0.233,0.006 -0.463,-0.133 -0.686,-0.411 l -9.823,-12.437 c -0.223,-0.281 -0.302,-0.534 -0.242,-0.764 0.06,-0.228 0.171,-0.405 0.336,-0.537 l 6.617,-5.228 c 0.057,-0.046 0.12,-0.071 0.189,-0.081 0.068,-0.008 0.145,0.01 0.224,0.052 0.079,0.042 0.167,0.104 0.263,0.188 0.096,0.084 0.197,0.194 0.312,0.34 0.104,0.129 0.184,0.25 0.242,0.36 0.058,0.11 0.097,0.209 0.116,0.293 0.021,0.083 0.018,0.157 -0.007,0.224 -0.023,0.065 -0.063,0.121 -0.123,0.167 l -5.452,4.309 3.455,4.375 4.679,-3.693 c 0.058,-0.046 0.123,-0.071 0.193,-0.076 0.072,-0.004 0.146,0.011 0.227,0.042 0.08,0.032 0.163,0.094 0.258,0.182 0.094,0.09 0.192,0.202 0.303,0.34 0.104,0.13 0.183,0.246 0.242,0.352 0.06,0.104 0.097,0.198 0.107,0.281 0.012,0.083 0.007,0.155 -0.021,0.218 -0.025,0.062 -0.067,0.116 -0.126,0.161 l -4.677,3.693 3.941,4.989 5.526,-4.367 c 0.058,-0.045 0.12,-0.07 0.188,-0.08 0.07,-0.008 0.147,0.004 0.231,0.037 0.084,0.031 0.171,0.092 0.262,0.178 0.098,0.084 0.199,0.199 0.313,0.343 z"
   id="path319"
   style="stroke-width:0.94901" />
	<path
   d="m 256.44,243.105 c 0.193,0.088 0.339,0.173 0.432,0.257 0.091,0.082 0.135,0.174 0.129,0.271 -0.005,0.099 -0.062,0.214 -0.165,0.349 -0.104,0.135 -0.258,0.304 -0.455,0.505 -0.197,0.204 -0.361,0.361 -0.488,0.474 -0.129,0.111 -0.233,0.188 -0.317,0.229 -0.083,0.04 -0.159,0.057 -0.229,0.046 -0.067,-0.009 -0.146,-0.027 -0.229,-0.061 l -4.163,-1.929 -5.157,5.289 2.04,4.022 c 0.04,0.076 0.065,0.152 0.076,0.229 0.011,0.074 0,0.156 -0.03,0.248 -0.03,0.092 -0.097,0.199 -0.194,0.327 -0.1,0.127 -0.236,0.283 -0.416,0.467 -0.188,0.189 -0.348,0.338 -0.479,0.442 -0.135,0.104 -0.249,0.161 -0.343,0.165 -0.094,0.005 -0.185,-0.039 -0.271,-0.129 -0.085,-0.089 -0.174,-0.229 -0.268,-0.424 l -7.656,-15.792 c -0.047,-0.097 -0.071,-0.188 -0.075,-0.274 -0.004,-0.088 0.021,-0.186 0.073,-0.293 0.055,-0.106 0.139,-0.229 0.252,-0.366 0.115,-0.139 0.27,-0.306 0.46,-0.502 0.205,-0.209 0.38,-0.378 0.522,-0.507 0.146,-0.128 0.271,-0.222 0.381,-0.28 0.108,-0.061 0.211,-0.089 0.304,-0.087 0.096,0.003 0.19,0.024 0.289,0.068 z m -15.771,-4.697 -0.01,0.01 4.202,8.377 4.313,-4.424 z"
   id="path321"
   style="stroke-width:0.94901" />
	<path
   d="m 266.637,230.305 c 0.06,0.044 0.103,0.093 0.131,0.146 0.027,0.055 0.028,0.131 0.005,0.226 -0.023,0.097 -0.079,0.216 -0.162,0.358 -0.082,0.146 -0.204,0.325 -0.367,0.548 -0.141,0.191 -0.264,0.343 -0.367,0.454 -0.104,0.11 -0.199,0.19 -0.287,0.239 -0.087,0.051 -0.177,0.073 -0.266,0.068 -0.089,-0.002 -0.188,-0.021 -0.299,-0.057 l -4.343,-1.164 c -0.497,-0.127 -0.969,-0.226 -1.41,-0.295 -0.442,-0.07 -0.864,-0.075 -1.267,-0.019 -0.4,0.058 -0.778,0.193 -1.136,0.408 -0.356,0.216 -0.694,0.54 -1.016,0.977 l -0.937,1.271 6.1,4.48 c 0.06,0.044 0.099,0.099 0.117,0.163 0.021,0.064 0.018,0.145 -0.009,0.231 -0.025,0.09 -0.073,0.201 -0.146,0.336 -0.07,0.137 -0.174,0.297 -0.312,0.479 -0.135,0.186 -0.257,0.331 -0.363,0.438 -0.107,0.108 -0.202,0.189 -0.283,0.244 -0.079,0.057 -0.15,0.081 -0.218,0.078 -0.064,-0.003 -0.129,-0.025 -0.188,-0.068 l -13.259,-9.742 c -0.286,-0.212 -0.433,-0.436 -0.437,-0.671 -0.005,-0.233 0.058,-0.438 0.183,-0.606 l 2.235,-3.043 c 0.267,-0.361 0.496,-0.654 0.689,-0.881 0.194,-0.229 0.373,-0.429 0.537,-0.604 0.503,-0.482 1.014,-0.859 1.53,-1.134 0.52,-0.271 1.042,-0.437 1.57,-0.49 0.527,-0.055 1.051,-0.004 1.564,0.153 0.516,0.157 1.021,0.418 1.516,0.781 0.479,0.352 0.86,0.73 1.146,1.141 0.284,0.408 0.481,0.841 0.597,1.299 0.112,0.457 0.15,0.937 0.114,1.432 -0.034,0.497 -0.133,1.011 -0.294,1.539 0.275,-0.159 0.564,-0.277 0.862,-0.354 0.301,-0.075 0.622,-0.114 0.966,-0.118 0.344,-0.004 0.713,0.027 1.109,0.092 0.396,0.063 0.829,0.154 1.298,0.271 l 4.098,1.034 c 0.344,0.092 0.578,0.162 0.706,0.212 0.14,0.058 0.234,0.103 0.293,0.148 z m -12.165,-4.526 c -0.562,-0.411 -1.128,-0.635 -1.699,-0.669 -0.57,-0.033 -1.158,0.184 -1.762,0.646 -0.188,0.146 -0.379,0.328 -0.57,0.544 -0.191,0.217 -0.429,0.514 -0.704,0.89 l -1.179,1.604 4.823,3.546 1.366,-1.858 c 0.368,-0.501 0.626,-0.979 0.771,-1.436 0.146,-0.454 0.201,-0.884 0.162,-1.287 -0.038,-0.402 -0.163,-0.771 -0.375,-1.102 -0.208,-0.33 -0.487,-0.623 -0.833,-0.878 z"
   id="path323"
   style="stroke-width:0.94901" />
	<path
   d="m 275.08,213.812 c 0.162,0.086 0.286,0.187 0.37,0.3 0.084,0.114 0.141,0.234 0.167,0.36 0.025,0.127 0.026,0.253 0.002,0.379 -0.024,0.125 -0.064,0.242 -0.123,0.354 l -0.364,0.689 c -0.114,0.219 -0.238,0.396 -0.368,0.537 -0.132,0.139 -0.294,0.252 -0.488,0.336 -0.193,0.085 -0.433,0.146 -0.711,0.188 -0.279,0.04 -0.622,0.06 -1.023,0.058 l -11.47,0.077 c -0.594,0.009 -1.211,0.006 -1.852,-0.008 -0.642,-0.014 -1.259,-0.035 -1.852,-0.066 l -0.015,0.023 c 0.592,0.292 1.192,0.593 1.807,0.904 0.612,0.312 1.217,0.627 1.815,0.941 l 9.484,5.006 c 0.059,0.029 0.104,0.075 0.139,0.138 0.033,0.062 0.045,0.143 0.029,0.237 -0.016,0.094 -0.047,0.216 -0.096,0.358 -0.052,0.144 -0.131,0.315 -0.238,0.521 -0.106,0.206 -0.206,0.369 -0.297,0.489 -0.09,0.122 -0.17,0.215 -0.238,0.275 -0.068,0.062 -0.139,0.097 -0.209,0.104 -0.07,0.007 -0.136,-0.006 -0.191,-0.035 l -14.502,-7.649 c -0.322,-0.171 -0.506,-0.386 -0.547,-0.643 -0.04,-0.256 -0.004,-0.493 0.109,-0.711 l 0.543,-1.027 c 0.128,-0.241 0.255,-0.435 0.381,-0.575 0.129,-0.143 0.271,-0.252 0.434,-0.333 0.162,-0.08 0.356,-0.139 0.587,-0.171 0.229,-0.033 0.507,-0.052 0.827,-0.053 l 8.845,-0.046 c 0.54,-0.005 1.066,-0.007 1.579,-0.007 0.513,0 1.015,0.005 1.507,0.014 0.491,0.011 0.979,0.019 1.454,0.023 0.479,0.009 0.955,0.019 1.438,0.03 l 0.007,-0.014 c -0.648,-0.319 -1.32,-0.661 -2.017,-1.022 -0.692,-0.36 -1.359,-0.711 -2.001,-1.048 l -8.525,-4.499 c -0.058,-0.029 -0.102,-0.074 -0.13,-0.134 -0.031,-0.062 -0.044,-0.141 -0.037,-0.24 0.007,-0.102 0.037,-0.223 0.09,-0.361 0.055,-0.142 0.139,-0.318 0.25,-0.532 0.1,-0.188 0.192,-0.347 0.281,-0.475 0.088,-0.128 0.171,-0.222 0.247,-0.278 0.077,-0.058 0.148,-0.092 0.216,-0.101 0.066,-0.008 0.13,0.002 0.187,0.032 z"
   id="path325"
   style="stroke-width:0.94901" />
	<path
   d="m 278.704,206.312 c 0.067,0.025 0.12,0.065 0.157,0.121 0.038,0.054 0.056,0.129 0.053,0.228 -0.004,0.097 -0.021,0.22 -0.057,0.367 -0.033,0.148 -0.093,0.331 -0.176,0.545 -0.08,0.203 -0.158,0.375 -0.236,0.512 -0.078,0.138 -0.148,0.241 -0.213,0.314 -0.062,0.073 -0.127,0.117 -0.189,0.132 -0.064,0.015 -0.132,0.009 -0.199,-0.021 l -15.885,-6.214 c -0.067,-0.025 -0.121,-0.068 -0.156,-0.128 -0.035,-0.059 -0.051,-0.138 -0.046,-0.238 0.006,-0.102 0.023,-0.227 0.06,-0.375 0.033,-0.148 0.087,-0.321 0.165,-0.519 0.083,-0.213 0.163,-0.387 0.24,-0.519 0.075,-0.134 0.145,-0.235 0.208,-0.311 0.062,-0.075 0.128,-0.117 0.191,-0.132 0.062,-0.015 0.13,-0.009 0.197,0.02 z"
   id="path327"
   style="stroke-width:0.94901" />
	<path
   d="m 283.73,187.557 c 0.179,0.048 0.319,0.116 0.429,0.21 0.107,0.092 0.188,0.196 0.243,0.313 0.055,0.117 0.082,0.238 0.086,0.368 0.004,0.128 -0.011,0.252 -0.043,0.37 l -0.199,0.756 c -0.062,0.237 -0.145,0.438 -0.24,0.604 -0.096,0.165 -0.229,0.312 -0.399,0.438 -0.17,0.126 -0.388,0.238 -0.65,0.341 -0.265,0.102 -0.594,0.194 -0.984,0.283 l -11.162,2.638 c -0.577,0.141 -1.181,0.273 -1.807,0.405 -0.628,0.131 -1.233,0.247 -1.819,0.348 l -0.007,0.026 c 0.642,0.151 1.295,0.312 1.962,0.479 0.666,0.168 1.325,0.34 1.979,0.514 l 10.363,2.762 c 0.062,0.017 0.117,0.051 0.164,0.104 0.049,0.053 0.075,0.128 0.082,0.225 0.008,0.098 0.003,0.221 -0.015,0.372 -0.018,0.149 -0.054,0.338 -0.112,0.562 -0.062,0.225 -0.12,0.405 -0.182,0.545 -0.062,0.139 -0.117,0.245 -0.172,0.32 -0.055,0.076 -0.111,0.125 -0.181,0.146 -0.067,0.021 -0.134,0.023 -0.194,0.009 l -15.846,-4.22 c -0.354,-0.096 -0.577,-0.263 -0.677,-0.503 -0.098,-0.241 -0.112,-0.479 -0.05,-0.719 l 0.3,-1.123 c 0.069,-0.265 0.15,-0.479 0.242,-0.646 0.092,-0.167 0.208,-0.307 0.348,-0.421 0.14,-0.114 0.316,-0.214 0.533,-0.298 0.218,-0.085 0.481,-0.163 0.794,-0.234 l 8.609,-2.021 c 0.526,-0.125 1.04,-0.245 1.54,-0.359 0.498,-0.113 0.987,-0.222 1.472,-0.321 0.48,-0.102 0.956,-0.201 1.422,-0.302 0.468,-0.1 0.938,-0.196 1.407,-0.292 l 0.004,-0.014 c -0.703,-0.168 -1.435,-0.352 -2.191,-0.549 -0.759,-0.196 -1.485,-0.388 -2.186,-0.573 l -9.315,-2.48 c -0.062,-0.017 -0.113,-0.051 -0.157,-0.103 -0.043,-0.053 -0.072,-0.127 -0.089,-0.228 -0.018,-0.1 -0.015,-0.225 0.007,-0.373 0.022,-0.148 0.062,-0.341 0.125,-0.574 0.056,-0.204 0.11,-0.38 0.168,-0.523 0.06,-0.146 0.118,-0.254 0.18,-0.326 0.062,-0.073 0.126,-0.122 0.188,-0.146 0.062,-0.022 0.125,-0.026 0.188,-0.011 z"
   id="path329"
   style="stroke-width:0.94901" />
	<path
   d="m 271.926,166.477 c 0.175,0.018 0.325,0.042 0.455,0.072 0.131,0.032 0.237,0.07 0.32,0.116 0.082,0.046 0.139,0.098 0.17,0.154 0.03,0.059 0.043,0.12 0.036,0.185 -0.012,0.109 -0.116,0.282 -0.313,0.521 -0.199,0.237 -0.426,0.561 -0.681,0.967 -0.253,0.406 -0.497,0.898 -0.73,1.479 -0.232,0.578 -0.395,1.276 -0.477,2.098 -0.102,0.975 -0.015,1.867 0.264,2.678 0.276,0.812 0.699,1.519 1.273,2.119 0.571,0.602 1.276,1.09 2.112,1.466 0.836,0.376 1.761,0.615 2.771,0.719 1.13,0.115 2.146,0.062 3.055,-0.163 0.907,-0.226 1.688,-0.585 2.348,-1.078 0.658,-0.493 1.181,-1.108 1.569,-1.848 0.388,-0.737 0.63,-1.566 0.724,-2.486 0.057,-0.548 0.048,-1.105 -0.027,-1.681 -0.073,-0.573 -0.219,-1.114 -0.435,-1.626 l -5.149,-0.526 -0.42,4.1 c -0.017,0.154 -0.104,0.264 -0.269,0.323 -0.163,0.062 -0.408,0.076 -0.734,0.042 -0.175,-0.018 -0.321,-0.042 -0.44,-0.071 -0.122,-0.031 -0.22,-0.071 -0.292,-0.12 -0.072,-0.049 -0.125,-0.104 -0.156,-0.161 -0.03,-0.059 -0.042,-0.128 -0.034,-0.21 l 0.575,-5.614 c 0.011,-0.101 0.039,-0.198 0.086,-0.295 0.047,-0.098 0.109,-0.183 0.191,-0.258 0.082,-0.073 0.188,-0.127 0.319,-0.16 0.133,-0.031 0.279,-0.039 0.443,-0.022 l 6.733,0.689 c 0.238,0.023 0.438,0.087 0.604,0.187 0.164,0.101 0.301,0.288 0.405,0.566 0.104,0.276 0.212,0.634 0.323,1.067 0.112,0.435 0.199,0.881 0.265,1.339 0.062,0.457 0.1,0.916 0.105,1.377 0.009,0.462 -0.012,0.915 -0.058,1.361 -0.141,1.365 -0.477,2.563 -1.01,3.596 -0.533,1.033 -1.229,1.878 -2.091,2.54 -0.857,0.662 -1.854,1.133 -2.986,1.413 -1.135,0.278 -2.374,0.351 -3.724,0.212 -1.4,-0.144 -2.649,-0.484 -3.745,-1.024 -1.096,-0.54 -2.004,-1.234 -2.727,-2.087 -0.724,-0.854 -1.25,-1.842 -1.582,-2.966 -0.33,-1.125 -0.43,-2.343 -0.295,-3.653 0.068,-0.674 0.192,-1.302 0.371,-1.881 0.181,-0.58 0.372,-1.093 0.578,-1.535 0.207,-0.442 0.42,-0.812 0.639,-1.107 0.221,-0.295 0.396,-0.495 0.523,-0.603 0.131,-0.104 0.275,-0.174 0.437,-0.204 0.164,-0.038 0.39,-0.038 0.681,-0.007 z"
   id="path331"
   style="stroke-width:0.94901" />
</g>
<g
   id="g376"
   transform="matrix(1.0537101,0,0,1.0537462,-12.746216,-12.341119)"
   style="stroke-width:0.94901">
	<path
   id="Innerer_Ring_3_"
   fill="none"
   d="m 269.632,169.56 c -4.14,59.189 -55.476,103.815 -114.667,99.679 C 95.772,265.097 51.147,213.76 55.285,154.573 59.423,95.383 110.759,50.757 169.952,54.895 c 59.19,4.14 103.817,55.477 99.68,114.665 z"
   style="stroke-width:1.06242" />
	<path
   d="m 55.496,121.981 c 1.031,0.316 1.906,0.753 2.623,1.305 0.716,0.552 1.269,1.193 1.654,1.926 0.388,0.732 0.603,1.546 0.643,2.438 0.04,0.896 -0.099,1.854 -0.413,2.877 -0.288,0.937 -0.688,1.747 -1.194,2.435 -0.51,0.688 -1.113,1.225 -1.812,1.611 -0.7,0.388 -1.493,0.607 -2.38,0.659 -0.89,0.054 -1.854,-0.082 -2.895,-0.402 l -10.539,-3.248 c -0.07,-0.021 -0.126,-0.06 -0.168,-0.108 -0.042,-0.05 -0.063,-0.125 -0.068,-0.224 -0.004,-0.098 0.007,-0.218 0.027,-0.365 0.021,-0.146 0.065,-0.333 0.137,-0.561 0.064,-0.212 0.132,-0.388 0.199,-0.528 0.067,-0.142 0.129,-0.25 0.187,-0.323 0.057,-0.073 0.115,-0.119 0.18,-0.14 0.062,-0.02 0.131,-0.018 0.199,0.005 l 10.265,3.163 c 0.786,0.242 1.504,0.357 2.148,0.348 0.646,-0.014 1.219,-0.141 1.72,-0.383 0.501,-0.242 0.93,-0.591 1.284,-1.042 0.354,-0.45 0.63,-0.996 0.827,-1.635 0.201,-0.656 0.285,-1.271 0.252,-1.842 -0.035,-0.57 -0.189,-1.094 -0.467,-1.565 -0.274,-0.473 -0.669,-0.891 -1.18,-1.255 -0.511,-0.361 -1.146,-0.662 -1.908,-0.896 l -10.38,-3.2 c -0.068,-0.021 -0.126,-0.058 -0.167,-0.108 -0.042,-0.051 -0.064,-0.125 -0.067,-0.222 -0.005,-0.098 0.006,-0.222 0.027,-0.372 0.021,-0.151 0.066,-0.336 0.136,-0.556 0.064,-0.21 0.131,-0.384 0.195,-0.521 0.066,-0.139 0.128,-0.243 0.185,-0.316 0.058,-0.073 0.117,-0.122 0.183,-0.146 0.062,-0.022 0.131,-0.023 0.2,-0.003 z"
   id="path336"
   style="stroke-width:0.94901" />
	<path
   d="m 68.357,107.764 c 0.165,0.08 0.289,0.178 0.376,0.29 0.088,0.111 0.146,0.229 0.177,0.356 0.028,0.125 0.032,0.252 0.011,0.378 -0.021,0.126 -0.062,0.245 -0.114,0.354 l -0.349,0.699 c -0.109,0.221 -0.229,0.401 -0.355,0.544 -0.127,0.146 -0.287,0.26 -0.479,0.35 -0.192,0.09 -0.429,0.157 -0.708,0.204 -0.277,0.045 -0.619,0.071 -1.021,0.08 l -11.464,0.35 c -0.594,0.021 -1.211,0.031 -1.853,0.034 -0.642,0.004 -1.259,-0.005 -1.853,-0.022 l -0.013,0.024 c 0.6,0.276 1.207,0.562 1.826,0.861 0.619,0.299 1.231,0.599 1.838,0.898 l 9.603,4.779 c 0.058,0.028 0.104,0.073 0.141,0.135 0.037,0.062 0.048,0.142 0.035,0.236 -0.012,0.097 -0.042,0.218 -0.088,0.359 -0.046,0.146 -0.122,0.32 -0.226,0.528 -0.102,0.208 -0.197,0.373 -0.284,0.497 -0.087,0.124 -0.165,0.218 -0.23,0.28 -0.066,0.062 -0.138,0.101 -0.208,0.106 -0.07,0.009 -0.135,-0.002 -0.19,-0.03 l -14.68,-7.309 c -0.328,-0.162 -0.516,-0.372 -0.562,-0.627 -0.047,-0.256 -0.017,-0.494 0.094,-0.714 l 0.52,-1.04 c 0.121,-0.245 0.245,-0.44 0.368,-0.585 0.124,-0.145 0.265,-0.26 0.424,-0.344 0.159,-0.085 0.354,-0.146 0.582,-0.186 0.229,-0.039 0.506,-0.062 0.825,-0.07 l 8.84,-0.256 c 0.541,-0.018 1.066,-0.031 1.58,-0.044 0.512,-0.012 1.014,-0.02 1.506,-0.021 0.492,-0.002 0.977,-0.006 1.454,-0.011 0.479,-0.004 0.957,-0.006 1.438,-0.004 l 0.005,-0.014 c -0.655,-0.306 -1.334,-0.631 -2.037,-0.976 -0.702,-0.346 -1.379,-0.68 -2.025,-1 l -8.631,-4.298 c -0.059,-0.028 -0.102,-0.071 -0.133,-0.131 -0.032,-0.061 -0.047,-0.14 -0.042,-0.24 0.004,-0.101 0.03,-0.223 0.082,-0.363 0.05,-0.143 0.128,-0.321 0.236,-0.537 0.096,-0.189 0.185,-0.352 0.271,-0.479 0.084,-0.13 0.165,-0.227 0.24,-0.283 0.076,-0.062 0.148,-0.096 0.214,-0.105 0.066,-0.009 0.128,0 0.187,0.028 z"
   id="path338"
   style="stroke-width:0.94901" />
	<path
   d="m 72.574,102.521 c 0.061,0.04 0.104,0.091 0.131,0.15 0.025,0.062 0.027,0.139 0.005,0.231 -0.022,0.095 -0.064,0.211 -0.129,0.351 -0.062,0.141 -0.156,0.306 -0.28,0.497 -0.119,0.186 -0.23,0.336 -0.335,0.454 -0.104,0.118 -0.193,0.207 -0.271,0.267 -0.075,0.061 -0.146,0.09 -0.213,0.091 -0.065,0.001 -0.13,-0.02 -0.19,-0.06 L 56.98,95.228 c -0.062,-0.04 -0.104,-0.093 -0.128,-0.155 -0.023,-0.065 -0.021,-0.146 0.002,-0.244 0.024,-0.099 0.069,-0.218 0.133,-0.355 0.062,-0.14 0.152,-0.298 0.267,-0.475 0.125,-0.19 0.237,-0.346 0.339,-0.46 0.102,-0.113 0.189,-0.201 0.268,-0.261 0.078,-0.061 0.148,-0.09 0.213,-0.091 0.066,0 0.131,0.02 0.191,0.06 z"
   id="path340"
   style="stroke-width:0.94901" />
	<path
   d="m 79.368,93.281 c 0.056,0.091 0.088,0.183 0.098,0.271 0.011,0.092 -0.006,0.191 -0.05,0.305 -0.043,0.111 -0.115,0.242 -0.216,0.391 -0.103,0.146 -0.236,0.324 -0.401,0.531 -0.126,0.157 -0.238,0.293 -0.338,0.407 -0.1,0.113 -0.188,0.209 -0.271,0.282 -0.084,0.074 -0.159,0.136 -0.227,0.182 -0.065,0.047 -0.13,0.079 -0.192,0.101 -0.062,0.021 -0.125,0.025 -0.185,0.021 -0.061,-0.006 -0.126,-0.021 -0.199,-0.047 L 60.886,89.899 c -0.204,-0.068 -0.354,-0.142 -0.453,-0.215 -0.1,-0.074 -0.148,-0.163 -0.146,-0.27 0.002,-0.104 0.053,-0.231 0.152,-0.389 0.102,-0.152 0.25,-0.353 0.443,-0.594 0.161,-0.199 0.296,-0.354 0.399,-0.465 0.105,-0.107 0.198,-0.184 0.278,-0.226 0.08,-0.041 0.155,-0.06 0.229,-0.055 0.071,0.006 0.155,0.021 0.25,0.052 l 14.844,5.409 0.01,-0.012 -8.52,-13.223 c -0.062,-0.084 -0.104,-0.161 -0.133,-0.229 -0.027,-0.067 -0.026,-0.149 0.003,-0.245 0.028,-0.095 0.089,-0.209 0.182,-0.347 0.094,-0.138 0.227,-0.312 0.398,-0.526 0.178,-0.222 0.327,-0.39 0.447,-0.502 0.122,-0.113 0.227,-0.175 0.312,-0.182 0.086,-0.006 0.174,0.035 0.263,0.123 0.087,0.088 0.188,0.225 0.298,0.407 z"
   id="path342"
   style="stroke-width:0.94901" />
	<path
   d="m 91.564,79.871 c 0.114,0.119 0.207,0.229 0.278,0.332 0.071,0.104 0.12,0.197 0.145,0.29 0.022,0.091 0.026,0.171 0.01,0.237 -0.019,0.066 -0.055,0.127 -0.105,0.179 l -6.176,5.881 c -0.152,0.146 -0.346,0.23 -0.579,0.258 -0.233,0.028 -0.475,-0.089 -0.721,-0.348 L 73.485,75.224 c -0.246,-0.26 -0.352,-0.505 -0.312,-0.735 0.038,-0.232 0.134,-0.422 0.285,-0.566 l 6.105,-5.813 c 0.054,-0.052 0.114,-0.083 0.184,-0.1 0.067,-0.014 0.145,-0.004 0.228,0.03 0.084,0.034 0.176,0.089 0.278,0.162 0.102,0.073 0.215,0.177 0.342,0.31 0.113,0.119 0.204,0.231 0.273,0.338 0.067,0.104 0.116,0.198 0.145,0.279 0.025,0.081 0.03,0.156 0.014,0.225 -0.02,0.066 -0.054,0.127 -0.104,0.179 l -5.032,4.792 3.846,4.036 4.315,-4.109 c 0.054,-0.051 0.115,-0.081 0.188,-0.093 0.073,-0.012 0.146,-0.005 0.229,0.021 0.081,0.024 0.172,0.076 0.271,0.156 0.104,0.08 0.214,0.185 0.333,0.311 0.113,0.119 0.205,0.229 0.274,0.327 0.067,0.099 0.112,0.188 0.133,0.271 0.021,0.081 0.021,0.152 0,0.218 -0.021,0.064 -0.059,0.122 -0.11,0.173 l -4.313,4.11 4.385,4.604 5.102,-4.857 c 0.054,-0.052 0.113,-0.083 0.184,-0.099 0.066,-0.016 0.146,-0.01 0.23,0.017 0.087,0.023 0.179,0.075 0.277,0.151 0.09,0.072 0.203,0.176 0.329,0.309 z"
   id="path344"
   style="stroke-width:0.94901" />
	<path
   d="m 104.084,71.2 c 0.044,0.06 0.069,0.118 0.08,0.18 0.011,0.062 -0.011,0.134 -0.062,0.217 -0.054,0.084 -0.141,0.182 -0.263,0.295 -0.123,0.11 -0.294,0.249 -0.515,0.411 -0.192,0.142 -0.354,0.248 -0.487,0.322 -0.133,0.074 -0.249,0.122 -0.347,0.145 -0.099,0.021 -0.188,0.018 -0.273,-0.014 -0.084,-0.03 -0.174,-0.078 -0.268,-0.146 l -3.794,-2.411 c -0.438,-0.271 -0.856,-0.506 -1.258,-0.704 -0.401,-0.199 -0.803,-0.332 -1.201,-0.396 -0.399,-0.064 -0.802,-0.049 -1.207,0.05 -0.404,0.1 -0.825,0.308 -1.262,0.626 l -1.273,0.935 4.475,6.104 c 0.043,0.06 0.063,0.122 0.062,0.19 0,0.067 -0.027,0.143 -0.077,0.22 -0.053,0.076 -0.132,0.17 -0.24,0.276 -0.107,0.106 -0.254,0.229 -0.438,0.365 -0.184,0.135 -0.345,0.237 -0.479,0.309 -0.134,0.072 -0.249,0.121 -0.342,0.147 -0.094,0.028 -0.17,0.031 -0.231,0.01 C 94.622,78.31 94.57,78.269 94.526,78.208 L 84.8,64.937 c -0.211,-0.288 -0.282,-0.545 -0.216,-0.771 0.067,-0.227 0.187,-0.399 0.356,-0.524 l 3.045,-2.231 c 0.363,-0.266 0.67,-0.477 0.925,-0.635 0.253,-0.156 0.483,-0.296 0.692,-0.414 0.623,-0.311 1.225,-0.518 1.799,-0.62 0.578,-0.104 1.125,-0.104 1.646,0.003 0.521,0.105 1.004,0.312 1.448,0.615 0.444,0.306 0.85,0.704 1.21,1.198 0.353,0.479 0.604,0.958 0.752,1.434 0.148,0.475 0.208,0.946 0.18,1.418 -0.03,0.47 -0.136,0.938 -0.319,1.398 -0.184,0.464 -0.43,0.924 -0.741,1.379 0.312,-0.068 0.62,-0.096 0.93,-0.077 0.309,0.02 0.627,0.077 0.955,0.178 0.329,0.101 0.672,0.238 1.031,0.42 0.358,0.181 0.743,0.396 1.156,0.648 l 3.6,2.215 c 0.298,0.189 0.502,0.328 0.608,0.413 0.108,0.085 0.185,0.158 0.227,0.216 z M 93.837,63.234 c -0.411,-0.562 -0.885,-0.942 -1.42,-1.146 -0.536,-0.203 -1.161,-0.174 -1.876,0.09 -0.224,0.085 -0.458,0.199 -0.706,0.349 -0.25,0.147 -0.562,0.359 -0.938,0.638 l -1.605,1.177 3.54,4.83 1.86,-1.363 c 0.501,-0.368 0.892,-0.747 1.167,-1.138 0.275,-0.391 0.457,-0.782 0.541,-1.18 0.083,-0.396 0.074,-0.784 -0.027,-1.163 -0.103,-0.383 -0.282,-0.746 -0.536,-1.094 z"
   id="path346"
   style="stroke-width:0.94901" />
	<path
   d="m 112.384,61.246 c 0.408,0.729 0.637,1.449 0.687,2.166 0.05,0.718 -0.052,1.405 -0.307,2.067 -0.255,0.661 -0.646,1.271 -1.179,1.831 -0.531,0.561 -1.169,1.048 -1.912,1.464 -0.521,0.291 -1.024,0.517 -1.519,0.678 -0.492,0.158 -0.948,0.272 -1.367,0.34 -0.419,0.066 -0.784,0.099 -1.097,0.094 -0.312,-0.004 -0.541,-0.026 -0.687,-0.071 -0.146,-0.044 -0.28,-0.128 -0.407,-0.251 -0.127,-0.124 -0.26,-0.31 -0.397,-0.558 -0.1,-0.176 -0.173,-0.324 -0.223,-0.45 -0.047,-0.124 -0.076,-0.23 -0.084,-0.321 -0.009,-0.09 0.003,-0.161 0.036,-0.217 0.031,-0.056 0.078,-0.102 0.145,-0.137 0.111,-0.062 0.308,-0.083 0.588,-0.062 0.278,0.021 0.624,0.022 1.031,0.006 0.409,-0.021 0.878,-0.087 1.409,-0.199 0.528,-0.11 1.09,-0.334 1.682,-0.665 0.446,-0.251 0.823,-0.539 1.127,-0.867 0.305,-0.327 0.528,-0.676 0.674,-1.046 0.146,-0.368 0.199,-0.754 0.164,-1.153 -0.034,-0.398 -0.167,-0.805 -0.395,-1.211 -0.246,-0.438 -0.558,-0.76 -0.931,-0.959 -0.375,-0.2 -0.791,-0.325 -1.25,-0.378 -0.46,-0.054 -0.953,-0.06 -1.481,-0.021 -0.529,0.039 -1.069,0.079 -1.624,0.121 -0.554,0.043 -1.106,0.057 -1.66,0.04 -0.555,-0.015 -1.09,-0.099 -1.604,-0.251 -0.517,-0.15 -1.001,-0.396 -1.457,-0.733 -0.457,-0.337 -0.861,-0.82 -1.215,-1.452 -0.362,-0.646 -0.566,-1.29 -0.615,-1.93 -0.049,-0.64 0.042,-1.248 0.27,-1.826 0.228,-0.578 0.58,-1.12 1.059,-1.623 0.479,-0.504 1.054,-0.943 1.724,-1.318 0.344,-0.191 0.707,-0.355 1.088,-0.49 0.381,-0.135 0.754,-0.237 1.116,-0.312 0.362,-0.071 0.7,-0.112 1.008,-0.124 0.311,-0.01 0.523,0.001 0.643,0.034 0.117,0.034 0.201,0.065 0.25,0.098 0.049,0.029 0.101,0.074 0.153,0.134 0.055,0.061 0.11,0.136 0.174,0.227 0.062,0.092 0.135,0.214 0.221,0.364 0.079,0.145 0.146,0.275 0.195,0.394 0.051,0.12 0.085,0.225 0.104,0.312 0.02,0.091 0.016,0.164 -0.009,0.226 -0.025,0.062 -0.063,0.105 -0.12,0.14 -0.088,0.049 -0.257,0.068 -0.509,0.062 -0.25,-0.007 -0.549,-0.004 -0.898,0.009 -0.351,0.014 -0.743,0.062 -1.18,0.156 -0.437,0.092 -0.886,0.269 -1.35,0.526 -0.433,0.241 -0.774,0.511 -1.03,0.805 -0.254,0.295 -0.434,0.597 -0.533,0.903 -0.1,0.309 -0.128,0.623 -0.084,0.943 0.044,0.322 0.148,0.632 0.313,0.927 0.241,0.433 0.549,0.747 0.923,0.946 0.375,0.2 0.795,0.327 1.261,0.382 0.466,0.055 0.966,0.062 1.501,0.024 0.534,-0.037 1.078,-0.077 1.632,-0.119 0.556,-0.042 1.109,-0.061 1.67,-0.055 0.561,0.008 1.099,0.085 1.616,0.229 0.516,0.146 1.003,0.389 1.459,0.726 0.457,0.335 0.858,0.811 1.201,1.425 z"
   id="path348"
   style="stroke-width:0.94901" />
	<path
   d="m 119.559,63.146 c 0.029,0.066 0.039,0.133 0.027,0.197 -0.011,0.064 -0.051,0.132 -0.121,0.197 -0.07,0.065 -0.171,0.143 -0.299,0.226 -0.128,0.082 -0.297,0.171 -0.505,0.265 -0.201,0.09 -0.377,0.155 -0.528,0.198 -0.151,0.042 -0.275,0.066 -0.372,0.075 -0.098,0.009 -0.174,-0.006 -0.229,-0.04 -0.056,-0.035 -0.099,-0.087 -0.129,-0.153 l -6.97,-15.565 c -0.029,-0.065 -0.038,-0.134 -0.021,-0.201 0.017,-0.065 0.062,-0.134 0.135,-0.202 0.074,-0.067 0.177,-0.145 0.306,-0.228 0.129,-0.082 0.288,-0.167 0.479,-0.253 0.209,-0.095 0.388,-0.16 0.534,-0.202 0.146,-0.04 0.271,-0.063 0.365,-0.071 0.097,-0.01 0.172,0.005 0.229,0.039 0.056,0.035 0.1,0.087 0.128,0.152 z"
   id="path350"
   style="stroke-width:0.94901" />
	<path
   d="m 128.817,42.304 c 0.057,0.163 0.097,0.311 0.121,0.438 0.022,0.127 0.028,0.233 0.016,0.32 -0.015,0.087 -0.043,0.156 -0.087,0.211 -0.046,0.055 -0.104,0.093 -0.173,0.116 l -4.73,1.607 4.958,14.589 c 0.022,0.069 0.026,0.137 0.011,0.2 -0.019,0.062 -0.063,0.125 -0.142,0.187 -0.076,0.061 -0.183,0.124 -0.317,0.193 -0.137,0.069 -0.312,0.144 -0.528,0.216 -0.208,0.071 -0.389,0.12 -0.543,0.148 -0.155,0.027 -0.281,0.043 -0.379,0.042 -0.097,-10e-4 -0.171,-0.021 -0.224,-0.062 -0.053,-0.038 -0.09,-0.095 -0.113,-0.163 l -4.959,-14.59 -4.731,1.609 c -0.07,0.022 -0.14,0.026 -0.207,0.012 -0.068,-0.017 -0.133,-0.055 -0.19,-0.115 -0.061,-0.062 -0.122,-0.148 -0.186,-0.265 -0.062,-0.113 -0.122,-0.254 -0.179,-0.418 -0.056,-0.164 -0.095,-0.312 -0.115,-0.446 -0.02,-0.134 -0.028,-0.244 -0.021,-0.334 0.008,-0.091 0.034,-0.161 0.08,-0.216 0.044,-0.054 0.102,-0.093 0.171,-0.116 l 11.701,-3.978 c 0.069,-0.023 0.139,-0.027 0.206,-0.013 0.067,0.017 0.135,0.056 0.201,0.12 0.064,0.063 0.128,0.156 0.188,0.276 0.059,0.124 0.115,0.267 0.171,0.432 z"
   id="path352"
   style="stroke-width:0.94901" />
	<path
   d="m 140.311,49.854 1.331,6.414 c 0.016,0.071 0.01,0.14 -0.015,0.198 -0.024,0.062 -0.079,0.117 -0.162,0.167 -0.082,0.051 -0.196,0.103 -0.344,0.156 -0.146,0.053 -0.327,0.104 -0.541,0.146 -0.224,0.047 -0.411,0.072 -0.562,0.082 -0.151,0.008 -0.277,0.006 -0.378,-0.006 -0.102,-0.014 -0.175,-0.043 -0.222,-0.089 -0.047,-0.047 -0.078,-0.104 -0.093,-0.177 l -1.33,-6.414 -6.958,-8.796 c -0.143,-0.187 -0.236,-0.334 -0.282,-0.446 -0.047,-0.11 -0.043,-0.206 0.012,-0.281 0.054,-0.077 0.167,-0.144 0.339,-0.196 0.169,-0.055 0.404,-0.111 0.7,-0.174 0.269,-0.057 0.487,-0.092 0.656,-0.107 0.17,-0.017 0.309,-0.02 0.412,-0.008 0.104,0.011 0.188,0.039 0.25,0.088 0.062,0.048 0.124,0.111 0.188,0.192 l 3.445,4.502 c 0.321,0.43 0.646,0.881 0.979,1.354 0.331,0.476 0.667,0.952 1.01,1.433 l 0.026,-0.005 c 0.1,-0.555 0.205,-1.105 0.317,-1.658 0.114,-0.553 0.231,-1.099 0.353,-1.638 l 1.378,-5.53 c 0.008,-0.097 0.03,-0.18 0.066,-0.252 0.035,-0.073 0.094,-0.135 0.172,-0.185 0.079,-0.049 0.191,-0.099 0.342,-0.146 0.147,-0.051 0.339,-0.1 0.572,-0.146 0.322,-0.066 0.578,-0.107 0.767,-0.124 0.189,-0.017 0.324,0 0.41,0.048 0.084,0.049 0.128,0.134 0.129,0.254 0.002,0.121 -0.025,0.29 -0.083,0.509 z"
   id="path354"
   style="stroke-width:0.94901" />
	<path
   d="m 169.937,45.513 c 0.005,1.438 -0.161,2.732 -0.496,3.888 -0.336,1.154 -0.838,2.14 -1.509,2.95 -0.67,0.812 -1.514,1.438 -2.528,1.875 -1.014,0.438 -2.199,0.658 -3.555,0.663 -1.337,0.004 -2.493,-0.19 -3.47,-0.589 -0.978,-0.395 -1.783,-0.972 -2.422,-1.729 -0.64,-0.759 -1.116,-1.699 -1.432,-2.824 -0.312,-1.126 -0.473,-2.421 -0.479,-3.887 -0.004,-1.399 0.162,-2.674 0.497,-3.818 0.335,-1.146 0.84,-2.119 1.516,-2.922 0.675,-0.805 1.521,-1.424 2.536,-1.862 1.015,-0.438 2.199,-0.658 3.555,-0.661 1.311,-0.005 2.449,0.188 3.423,0.579 0.971,0.392 1.78,0.964 2.428,1.717 0.647,0.754 1.132,1.688 1.45,2.798 0.319,1.11 0.483,2.384 0.486,3.822 z m -2.499,0.172 c -0.003,-1.008 -0.097,-1.942 -0.275,-2.809 -0.181,-0.864 -0.479,-1.613 -0.897,-2.249 -0.418,-0.636 -0.976,-1.131 -1.671,-1.484 -0.696,-0.354 -1.556,-0.531 -2.58,-0.526 -1.022,0.002 -1.883,0.196 -2.575,0.584 -0.694,0.387 -1.258,0.899 -1.69,1.543 -0.434,0.642 -0.741,1.391 -0.927,2.248 -0.185,0.855 -0.275,1.757 -0.272,2.697 0.003,1.044 0.093,2.006 0.27,2.885 0.178,0.879 0.472,1.636 0.886,2.271 0.414,0.636 0.965,1.129 1.655,1.479 0.693,0.352 1.56,0.523 2.602,0.521 1.033,-0.003 1.9,-0.197 2.604,-0.584 0.703,-0.387 1.269,-0.907 1.697,-1.563 0.428,-0.654 0.729,-1.413 0.91,-2.273 0.177,-0.867 0.265,-1.779 0.263,-2.74 z"
   id="path356"
   style="stroke-width:0.94901" />
	<path
   d="m 184.577,39.741 c -0.022,0.173 -0.055,0.319 -0.09,0.444 -0.035,0.125 -0.08,0.223 -0.137,0.293 -0.058,0.07 -0.116,0.121 -0.181,0.147 -0.063,0.028 -0.128,0.038 -0.19,0.029 l -6.449,-0.882 -0.818,5.985 6.097,0.833 c 0.063,0.01 0.123,0.033 0.179,0.073 0.054,0.04 0.099,0.1 0.135,0.178 0.034,0.079 0.054,0.182 0.057,0.307 0.001,0.125 -0.012,0.282 -0.037,0.474 -0.022,0.173 -0.055,0.317 -0.088,0.438 -0.035,0.12 -0.08,0.216 -0.136,0.287 -0.058,0.069 -0.117,0.121 -0.183,0.154 -0.063,0.032 -0.129,0.044 -0.191,0.035 l -6.097,-0.833 -1.002,7.334 c -0.009,0.062 -0.034,0.123 -0.079,0.177 -0.045,0.055 -0.114,0.092 -0.208,0.109 -0.097,0.02 -0.219,0.03 -0.365,0.033 -0.147,0.002 -0.341,-0.012 -0.576,-0.045 -0.219,-0.028 -0.401,-0.065 -0.554,-0.109 -0.151,-0.044 -0.271,-0.087 -0.355,-0.131 -0.087,-0.046 -0.145,-0.1 -0.172,-0.163 -0.027,-0.062 -0.038,-0.127 -0.028,-0.19 l 2.229,-16.301 c 0.05,-0.354 0.176,-0.588 0.38,-0.703 0.206,-0.115 0.412,-0.158 0.622,-0.13 l 7.918,1.082 c 0.062,0.009 0.122,0.035 0.177,0.08 0.054,0.044 0.099,0.109 0.133,0.198 0.034,0.087 0.052,0.198 0.052,0.331 -0.008,0.14 -0.019,0.294 -0.043,0.466 z"
   id="path358"
   style="stroke-width:0.94901" />
	<path
   d="m 203.244,59.708 c -0.047,0.141 -0.091,0.26 -0.135,0.36 -0.043,0.103 -0.089,0.188 -0.135,0.26 -0.047,0.07 -0.1,0.132 -0.154,0.182 -0.054,0.05 -0.14,0.104 -0.255,0.161 -0.114,0.059 -0.342,0.132 -0.679,0.219 -0.338,0.087 -0.739,0.146 -1.209,0.182 -0.47,0.033 -0.989,0.021 -1.562,-0.035 -0.574,-0.06 -1.18,-0.192 -1.812,-0.401 -1.098,-0.358 -2.025,-0.866 -2.788,-1.521 -0.764,-0.654 -1.34,-1.44 -1.728,-2.358 -0.388,-0.917 -0.576,-1.955 -0.566,-3.112 0.011,-1.158 0.238,-2.42 0.688,-3.785 0.461,-1.399 1.051,-2.589 1.771,-3.565 0.721,-0.979 1.531,-1.74 2.435,-2.287 0.904,-0.547 1.874,-0.871 2.914,-0.974 1.04,-0.101 2.113,0.029 3.219,0.394 0.486,0.159 0.944,0.361 1.377,0.604 0.432,0.243 0.818,0.498 1.165,0.767 0.346,0.27 0.643,0.544 0.886,0.825 0.244,0.282 0.405,0.503 0.485,0.657 0.077,0.156 0.125,0.271 0.14,0.344 0.016,0.071 0.021,0.153 0.016,0.242 -0.006,0.091 -0.021,0.193 -0.045,0.312 -0.022,0.116 -0.062,0.254 -0.113,0.41 -0.057,0.174 -0.113,0.317 -0.172,0.436 -0.059,0.117 -0.116,0.21 -0.179,0.28 -0.063,0.071 -0.124,0.118 -0.186,0.143 -0.062,0.023 -0.127,0.022 -0.196,10e-4 -0.123,-0.041 -0.266,-0.182 -0.429,-0.423 -0.162,-0.241 -0.385,-0.521 -0.662,-0.839 -0.277,-0.318 -0.637,-0.644 -1.074,-0.976 -0.437,-0.332 -1.004,-0.61 -1.693,-0.838 -0.752,-0.247 -1.484,-0.322 -2.199,-0.226 -0.717,0.099 -1.389,0.365 -2.017,0.807 -0.629,0.438 -1.201,1.037 -1.719,1.799 -0.515,0.761 -0.949,1.681 -1.306,2.759 -0.353,1.069 -0.547,2.055 -0.584,2.952 -0.038,0.896 0.067,1.693 0.318,2.389 0.251,0.694 0.646,1.286 1.185,1.775 0.534,0.489 1.201,0.864 1.998,1.126 0.673,0.223 1.287,0.332 1.846,0.332 0.559,0 1.045,-0.044 1.468,-0.132 0.421,-0.089 0.771,-0.179 1.055,-0.27 0.281,-0.092 0.488,-0.114 0.619,-0.071 0.062,0.021 0.108,0.052 0.146,0.092 0.035,0.041 0.055,0.104 0.058,0.186 0.002,0.082 -0.014,0.19 -0.043,0.325 -0.036,0.125 -0.083,0.292 -0.149,0.492 z"
   id="path360"
   style="stroke-width:0.94901" />
	<path
   d="m 217.072,68.244 c -0.022,0.213 -0.061,0.376 -0.11,0.488 -0.049,0.111 -0.122,0.183 -0.216,0.207 -0.096,0.024 -0.224,0.009 -0.382,-0.051 -0.16,-0.06 -0.366,-0.149 -0.622,-0.274 -0.255,-0.127 -0.454,-0.231 -0.601,-0.319 -0.146,-0.087 -0.252,-0.164 -0.313,-0.23 -0.063,-0.066 -0.104,-0.135 -0.115,-0.202 -0.015,-0.066 -0.019,-0.146 -0.015,-0.235 l 0.547,-4.554 -6.626,-3.269 -3.194,3.188 c -0.062,0.062 -0.127,0.108 -0.193,0.143 -0.065,0.033 -0.147,0.05 -0.244,0.049 -0.098,-0.002 -0.22,-0.03 -0.372,-0.084 -0.151,-0.056 -0.343,-0.14 -0.572,-0.252 -0.237,-0.117 -0.428,-0.225 -0.568,-0.319 -0.143,-0.095 -0.229,-0.188 -0.264,-0.274 -0.032,-0.087 -0.021,-0.187 0.039,-0.294 0.059,-0.108 0.164,-0.236 0.319,-0.386 l 12.646,-12.171 c 0.076,-0.073 0.157,-0.127 0.238,-0.156 0.082,-0.031 0.182,-0.039 0.301,-0.021 0.119,0.018 0.262,0.061 0.429,0.126 0.166,0.066 0.373,0.161 0.617,0.281 0.265,0.131 0.479,0.243 0.646,0.342 0.166,0.097 0.295,0.188 0.387,0.272 0.091,0.086 0.147,0.174 0.176,0.264 0.025,0.091 0.034,0.188 0.022,0.296 z m -0.418,-16.451 -0.012,-0.006 -6.664,6.59 5.543,2.732 z"
   id="path362"
   style="stroke-width:0.94901" />
	<path
   d="m 226.907,74.625 c -0.102,0.151 -0.193,0.274 -0.276,0.368 -0.084,0.094 -0.167,0.165 -0.249,0.215 -0.082,0.05 -0.159,0.075 -0.23,0.077 -0.072,0.001 -0.144,-0.021 -0.212,-0.065 l -6.555,-4.33 c -0.176,-0.116 -0.303,-0.285 -0.381,-0.508 -0.079,-0.222 -0.021,-0.48 0.179,-0.778 l 9.067,-13.728 c 0.041,-0.062 0.092,-0.104 0.151,-0.131 0.062,-0.025 0.14,-0.025 0.231,-0.002 0.096,0.022 0.214,0.067 0.354,0.136 0.144,0.065 0.307,0.16 0.488,0.281 0.19,0.126 0.343,0.24 0.457,0.343 0.112,0.104 0.198,0.191 0.258,0.271 0.06,0.078 0.088,0.147 0.088,0.215 0.001,0.066 -0.021,0.13 -0.061,0.189 l -8.471,12.821 5.314,3.513 c 0.068,0.047 0.115,0.104 0.145,0.17 0.027,0.066 0.036,0.146 0.027,0.231 -0.009,0.088 -0.041,0.189 -0.096,0.307 -0.049,0.117 -0.127,0.253 -0.228,0.405 z"
   id="path364"
   style="stroke-width:0.94901" />
	<path
   d="m 238.428,82.299 c -0.094,0.112 -0.182,0.208 -0.258,0.285 -0.078,0.078 -0.152,0.143 -0.224,0.188 -0.07,0.05 -0.142,0.085 -0.211,0.11 -0.068,0.024 -0.169,0.043 -0.297,0.055 -0.13,0.012 -0.365,-0.006 -0.711,-0.053 -0.348,-0.046 -0.742,-0.14 -1.188,-0.283 -0.448,-0.145 -0.928,-0.351 -1.438,-0.618 -0.51,-0.271 -1.021,-0.617 -1.531,-1.05 -0.881,-0.743 -1.554,-1.562 -2.016,-2.455 -0.464,-0.894 -0.701,-1.838 -0.72,-2.833 -0.018,-0.996 0.197,-2.028 0.641,-3.101 0.439,-1.07 1.126,-2.154 2.052,-3.255 0.951,-1.126 1.942,-2.008 2.978,-2.646 1.036,-0.638 2.071,-1.04 3.114,-1.209 1.041,-0.171 2.062,-0.107 3.065,0.188 1.002,0.295 1.947,0.815 2.837,1.565 0.393,0.331 0.743,0.688 1.053,1.075 0.309,0.387 0.573,0.77 0.794,1.146 0.22,0.377 0.391,0.743 0.511,1.096 0.122,0.354 0.188,0.618 0.205,0.793 0.016,0.175 0.017,0.298 0.003,0.369 -0.016,0.073 -0.04,0.149 -0.078,0.23 -0.038,0.081 -0.092,0.173 -0.157,0.271 -0.065,0.1 -0.15,0.213 -0.26,0.338 -0.116,0.142 -0.226,0.254 -0.321,0.341 -0.097,0.086 -0.188,0.15 -0.271,0.192 -0.083,0.042 -0.158,0.062 -0.225,0.062 -0.064,-0.002 -0.126,-0.024 -0.184,-0.072 -0.099,-0.083 -0.178,-0.268 -0.238,-0.553 -0.062,-0.285 -0.161,-0.627 -0.299,-1.024 -0.142,-0.397 -0.352,-0.835 -0.634,-1.308 -0.282,-0.473 -0.7,-0.94 -1.258,-1.409 -0.604,-0.512 -1.257,-0.854 -1.956,-1.031 -0.7,-0.177 -1.424,-0.181 -2.172,-0.007 -0.747,0.172 -1.502,0.515 -2.266,1.025 -0.764,0.51 -1.512,1.201 -2.243,2.069 -0.727,0.86 -1.273,1.7 -1.646,2.52 -0.371,0.817 -0.568,1.598 -0.597,2.335 -0.026,0.737 0.117,1.436 0.432,2.09 0.315,0.653 0.793,1.252 1.435,1.792 0.541,0.457 1.071,0.79 1.587,0.997 0.518,0.21 0.987,0.352 1.41,0.427 0.425,0.077 0.783,0.125 1.078,0.146 0.295,0.021 0.496,0.075 0.603,0.165 0.05,0.042 0.083,0.089 0.101,0.14 0.019,0.051 0.012,0.113 -0.019,0.189 -0.028,0.078 -0.081,0.175 -0.16,0.287 -0.077,0.123 -0.186,0.261 -0.321,0.421 z"
   id="path366"
   style="stroke-width:0.94901" />
	<path
   d="m 252.338,91.623 c -0.811,0.715 -1.637,1.233 -2.479,1.56 -0.845,0.323 -1.68,0.46 -2.508,0.407 -0.826,-0.051 -1.632,-0.292 -2.416,-0.725 -0.785,-0.432 -1.53,-1.049 -2.24,-1.852 -0.647,-0.735 -1.133,-1.498 -1.452,-2.289 -0.32,-0.792 -0.465,-1.587 -0.432,-2.388 0.033,-0.799 0.26,-1.591 0.679,-2.375 0.419,-0.785 1.035,-1.538 1.853,-2.26 l 8.267,-7.3 c 0.057,-0.049 0.115,-0.076 0.182,-0.086 0.064,-0.01 0.141,0.011 0.226,0.059 0.085,0.048 0.187,0.118 0.299,0.213 0.114,0.096 0.251,0.23 0.408,0.409 0.146,0.165 0.261,0.312 0.347,0.444 0.086,0.132 0.146,0.241 0.18,0.327 0.034,0.086 0.043,0.161 0.024,0.227 -0.018,0.062 -0.054,0.12 -0.106,0.168 l -8.05,7.107 c -0.618,0.546 -1.092,1.098 -1.418,1.653 -0.324,0.558 -0.517,1.113 -0.568,1.667 -0.055,0.556 0.02,1.102 0.22,1.64 0.201,0.537 0.521,1.058 0.965,1.56 0.453,0.514 0.935,0.904 1.438,1.174 0.503,0.27 1.031,0.408 1.579,0.419 0.547,0.013 1.107,-0.105 1.687,-0.353 0.575,-0.247 1.163,-0.634 1.759,-1.161 l 8.144,-7.188 c 0.057,-0.05 0.115,-0.078 0.182,-0.088 0.065,-0.009 0.141,0.012 0.226,0.059 0.085,0.049 0.187,0.121 0.304,0.22 0.117,0.098 0.253,0.231 0.402,0.403 0.146,0.165 0.26,0.312 0.344,0.438 0.082,0.129 0.142,0.236 0.175,0.322 0.032,0.087 0.043,0.163 0.028,0.229 -0.016,0.066 -0.05,0.125 -0.104,0.174 z"
   id="path368"
   style="stroke-width:0.94901" />
	<path
   d="m 269.876,99.369 c -0.146,0.096 -0.274,0.172 -0.395,0.226 -0.117,0.057 -0.219,0.089 -0.308,0.098 -0.088,0.009 -0.163,-0.003 -0.229,-0.031 -0.062,-0.029 -0.112,-0.075 -0.153,-0.137 l -2.75,-4.175 -12.867,8.477 c -0.062,0.04 -0.125,0.06 -0.19,0.06 -0.064,-0.001 -0.138,-0.029 -0.215,-0.089 -0.077,-0.06 -0.167,-0.146 -0.27,-0.259 -0.103,-0.113 -0.217,-0.268 -0.342,-0.457 -0.121,-0.185 -0.216,-0.348 -0.282,-0.489 -0.064,-0.143 -0.11,-0.261 -0.134,-0.354 -0.022,-0.095 -0.022,-0.172 0.003,-0.231 0.024,-0.062 0.068,-0.11 0.131,-0.151 l 12.867,-8.476 -2.749,-4.175 c -0.04,-0.062 -0.062,-0.127 -0.062,-0.196 -0.003,-0.069 0.021,-0.142 0.062,-0.215 0.046,-0.074 0.113,-0.154 0.209,-0.245 0.094,-0.089 0.215,-0.182 0.358,-0.276 0.146,-0.097 0.279,-0.171 0.401,-0.226 0.124,-0.054 0.23,-0.088 0.32,-0.104 0.088,-0.016 0.163,-0.008 0.229,0.021 0.062,0.029 0.114,0.075 0.155,0.138 l 6.798,10.32 c 0.04,0.062 0.062,0.127 0.063,0.197 0.002,0.068 -0.021,0.146 -0.066,0.225 -0.046,0.079 -0.118,0.163 -0.221,0.252 -0.094,0.085 -0.218,0.176 -0.363,0.272 z"
   id="path370"
   style="stroke-width:0.94901" />
	<path
   d="m 276.897,113.319 c -0.155,0.076 -0.296,0.136 -0.419,0.176 -0.123,0.04 -0.229,0.06 -0.316,0.056 -0.089,-0.002 -0.161,-0.021 -0.22,-0.06 -0.062,-0.037 -0.105,-0.09 -0.139,-0.154 l -2.205,-4.485 -13.827,6.798 c -0.064,0.033 -0.132,0.045 -0.196,0.036 -0.065,-0.01 -0.135,-0.047 -0.201,-0.115 -0.069,-0.066 -0.146,-0.165 -0.235,-0.29 -0.086,-0.126 -0.182,-0.29 -0.281,-0.495 -0.097,-0.197 -0.17,-0.371 -0.218,-0.521 -0.049,-0.15 -0.078,-0.272 -0.091,-0.369 -0.012,-0.098 0,-0.173 0.033,-0.229 0.033,-0.059 0.082,-0.104 0.147,-0.136 l 13.826,-6.798 -2.204,-4.485 c -0.032,-0.064 -0.046,-0.134 -0.039,-0.202 0.007,-0.069 0.037,-0.14 0.091,-0.205 0.054,-0.066 0.133,-0.141 0.237,-0.217 0.104,-0.077 0.234,-0.154 0.393,-0.23 0.156,-0.076 0.298,-0.135 0.429,-0.173 0.129,-0.037 0.237,-0.059 0.328,-0.062 0.091,-0.005 0.165,0.013 0.226,0.05 0.059,0.037 0.104,0.089 0.137,0.154 l 5.453,11.092 c 0.032,0.065 0.046,0.134 0.039,0.203 -0.007,0.068 -0.038,0.142 -0.095,0.214 -0.057,0.073 -0.14,0.146 -0.251,0.224 -0.111,0.07 -0.245,0.146 -0.402,0.223 z"
   id="path372"
   style="stroke-width:0.94901" />
	<path
   d="m 267.022,132.871 c -0.166,0.137 -0.307,0.229 -0.42,0.272 -0.115,0.046 -0.216,0.045 -0.302,-0.003 -0.085,-0.048 -0.162,-0.146 -0.237,-0.302 -0.074,-0.152 -0.158,-0.362 -0.254,-0.631 -0.096,-0.269 -0.164,-0.482 -0.209,-0.646 -0.044,-0.164 -0.064,-0.293 -0.062,-0.386 10e-4,-0.094 0.021,-0.168 0.059,-0.226 0.037,-0.058 0.09,-0.117 0.154,-0.18 l 3.563,-2.889 -2.479,-6.961 -4.513,0.062 c -0.087,0.002 -0.165,-0.009 -0.236,-0.03 -0.07,-0.023 -0.142,-0.069 -0.209,-0.139 -0.066,-0.067 -0.138,-0.175 -0.208,-0.318 -0.07,-0.146 -0.149,-0.338 -0.234,-0.579 -0.091,-0.25 -0.151,-0.459 -0.188,-0.626 -0.036,-0.168 -0.034,-0.294 0.003,-0.381 0.036,-0.086 0.113,-0.146 0.231,-0.186 0.117,-0.037 0.285,-0.056 0.5,-0.055 l 17.549,0.076 c 0.106,0 0.2,0.02 0.28,0.053 0.081,0.034 0.157,0.101 0.229,0.195 0.071,0.095 0.146,0.225 0.219,0.389 0.073,0.163 0.155,0.374 0.247,0.635 0.1,0.274 0.175,0.506 0.227,0.691 0.052,0.187 0.079,0.341 0.085,0.465 0.005,0.124 -0.013,0.229 -0.059,0.312 -0.043,0.083 -0.104,0.159 -0.188,0.229 z m 11.159,-12.095 -0.004,-0.013 -9.371,0.087 2.072,5.82 z"
   id="path374"
   style="stroke-width:0.94901" />
</g>
<path
   id="uerer_Ring"
   fill="none"
   stroke="#000000"
   stroke-width="3.5"
   d="m 300.79893,158.43635 c 0,78.62738 -63.73365,142.36427 -142.36044,142.36427 -78.629962,0 -142.360463,-63.73372 -142.360463,-142.36427 0,-78.624206 63.730501,-142.363204 142.360463,-142.363204 78.62575,0.0011 142.36044,63.738998 142.36044,142.363204 z" />
<path
   id="uerster_Ring"
   fill="none"
   stroke="#000000"
   stroke-width="3.5"
   d="m 312.18638,158.43635 c 0,84.91718 -68.8336,153.75 -153.74789,153.75 -84.919557,0 -153.7521242,-68.83282 -153.7521242,-153.75 0,-84.916126 68.8315002,-153.7499845 153.7521242,-153.7499845 84.91429,0 153.74789,68.8338585 153.74789,153.7499845 z" />
<ellipse
   cx="279.6152"
   cy="144.60803"
   id="circle380"
   style="stroke-width:0.999996"
   rx="5.5330319"
   ry="5.5332212" />
<ellipse
   cx="35.417816"
   cy="144.60803"
   id="circle382"
   style="stroke-width:0.999996"
   rx="5.5330319"
   ry="5.5332212" />
<ellipse
   fill="none"
   cx="158.42163"
   cy="116.37291"
   id="circle384"
   style="stroke-width:0.999996"
   rx="4.3065133"
   ry="4.3066607" />
<path
   fill="none"
   d="m 185.11947,125.648 c -1.68487,1.68387 -1.68593,4.40992 0,6.09169 1.67962,1.68073 4.40872,1.68073 6.09045,0 1.68068,-1.68388 1.68068,-4.41309 0,-6.09169 -1.68172,-1.68074 -4.41082,-1.68074 -6.09045,0 z"
   id="path386"
   style="stroke-width:0.999996" />
<path
   fill="none"
   d="m 200.48257,154.12864 c -2.38349,9.9e-4 -4.30968,1.92625 -4.30968,4.30771 0.003,2.38041 1.9304,4.30561 4.30652,4.30667 2.38137,0 4.31074,-1.92626 4.30968,-4.30772 -0.003,-2.37831 -1.92936,-4.30666 -4.30652,-4.30666 z"
   id="path388"
   style="stroke-width:0.999996" />
<path
   fill="none"
   d="m 185.11209,185.1309 c -1.67855,1.68389 -1.67644,4.41099 0,6.0917 1.687,1.68073 4.41401,1.68284 6.09677,0 1.67962,-1.68388 1.68173,-4.40887 0,-6.08959 -1.68804,-1.68599 -4.41083,-1.68599 -6.09677,-0.002 z"
   id="path390"
   style="stroke-width:0.999996" />
<path
   fill="none"
   d="m 116.36384,154.12864 c -2.38139,0 -4.3118,1.92625 -4.30652,4.30666 0,2.38146 1.92513,4.30666 4.30019,4.30666 2.38771,0 4.31388,-1.9252 4.31388,-4.30666 -9.7e-4,-2.37831 -1.93354,-4.30561 -4.30755,-4.30666 z"
   id="path392"
   style="stroke-width:0.999996" />
<path
   fill="none"
   d="m 125.63752,185.12774 c -1.68697,1.68705 -1.68697,4.41308 0,6.09382 1.68384,1.68177 4.40662,1.68177 6.08518,0.002 1.68594,-1.68811 1.68594,-4.41099 0.004,-6.09592 -1.68067,-1.6818 -4.40978,-1.67651 -6.0894,0 z"
   id="path394"
   style="stroke-width:0.999996" />
<path
   fill="none"
   d="m 131.72799,131.74075 c 1.68171,-1.68074 1.6775,-4.41309 0,-6.0896 -1.68385,-1.68389 -4.4119,-1.68811 -6.0894,-9.9e-4 -1.68384,1.68387 -1.68488,4.40675 -0.003,6.08644 1.68381,1.68704 4.40872,1.68388 6.09255,0.004 z"
   id="path396"
   style="stroke-width:0.999996" />
<path
   fill="none"
   d="m 158.42057,196.18786 c -2.37823,0 -4.30546,1.93258 -4.30651,4.30561 9.8e-4,2.38252 1.92828,4.30981 4.30756,4.30771 2.37927,-0.002 4.3044,-1.92519 4.3044,-4.3014 0,-2.38568 -1.92618,-4.31192 -4.30545,-4.31192 z"
   id="path398"
   style="stroke-width:0.999996" />
<path
   fill="none"
   d="m 120.67036,158.4353 c 0,-2.37831 -1.93252,-4.30561 -4.30758,-4.30666 -2.38138,0 -4.31178,1.92625 -4.30652,4.30666 0,2.38146 1.92514,4.30666 4.30021,4.30666 2.38769,0 4.3139,-1.92625 4.31389,-4.30666 z"
   id="path400"
   style="stroke-width:0.999996" />
<path
   fill="none"
   d="m 125.63752,185.12774 c -1.68697,1.68705 -1.68697,4.41308 0,6.09382 1.68384,1.68177 4.40662,1.68177 6.08518,0.002 1.68594,-1.68811 1.68594,-4.41099 0.004,-6.09592 -1.68067,-1.6818 -4.40978,-1.67651 -6.0894,0 z"
   id="path402"
   style="stroke-width:0.999996" />
<path
   fill="none"
   d="m 131.72799,131.74075 c 1.68171,-1.68074 1.6775,-4.41309 0,-6.0896 -1.68385,-1.68389 -4.4119,-1.68811 -6.0894,-9.9e-4 -1.68384,1.68387 -1.68488,4.40675 -0.003,6.08644 1.68381,1.68704 4.40872,1.68388 6.09255,0.004 z"
   id="path404"
   style="stroke-width:0.999996" />
<path
   fill="none"
   d="m 191.20992,131.74075 c 1.68068,-1.68389 1.68068,-4.41309 0,-6.09171 -1.68277,-1.68178 -4.41188,-1.68178 -6.09044,0 -1.68487,1.68389 -1.68594,4.40993 0,6.09171 1.67856,1.67967 4.40767,1.67967 6.09044,0 z"
   id="path406"
   style="stroke-width:0.999996" />
<ellipse
   fill="none"
   cx="158.42163"
   cy="116.37291"
   id="circle408"
   style="stroke-width:0.999996"
   rx="4.3065133"
   ry="4.3066607" />
<path
   fill="none"
   d="m 158.42057,196.18786 c -2.37823,0 -4.30546,1.93258 -4.30651,4.30561 9.8e-4,2.38252 1.92828,4.30981 4.30756,4.30771 2.37927,-0.002 4.3044,-1.92519 4.3044,-4.3014 0,-2.38568 -1.92618,-4.31192 -4.30545,-4.31192 z"
   id="path410"
   style="stroke-width:0.999996" />
<path
   fill="none"
   d="m 200.48257,154.12864 c -2.38349,9.9e-4 -4.30968,1.92625 -4.30968,4.30771 0.003,2.38041 1.9304,4.30561 4.30652,4.30667 2.38137,0 4.31074,-1.92626 4.30968,-4.30772 -0.003,-2.37831 -1.92936,-4.30666 -4.30652,-4.30666 z"
   id="path412"
   style="stroke-width:0.999996" />
<path
   fill="none"
   d="m 185.11209,185.1309 c -1.67855,1.68389 -1.67644,4.41099 0,6.0917 1.687,1.68073 4.41401,1.68284 6.09677,0 1.67962,-1.68388 1.68173,-4.40887 0,-6.08959 -1.68804,-1.68599 -4.41083,-1.68599 -6.09677,-0.002 z"
   id="path414"
   style="stroke-width:0.999996" />
<path
   d="m 177.38103,112.65635 c -25.27747,-10.47107 -54.26397,1.52793 -64.73679,26.81679 -10.46967,25.28253 1.53419,54.26581 26.81691,64.73689 25.27536,10.47212 54.26291,-1.53214 64.73786,-26.80942 10.47176,-25.28989 -1.53946,-54.2774 -26.81798,-64.74426 z m 7.73844,12.99165 c 1.68067,-1.68179 4.40979,-1.68179 6.09045,0 1.68068,1.68071 1.68068,4.40992 0,6.09169 -1.68382,1.68073 -4.41293,1.68073 -6.09044,0 -1.68594,-1.68283 -1.68487,-4.40782 -1e-5,-6.09169 z m -26.69785,-13.58174 c 2.37927,0 4.3065,1.92834 4.3065,4.30666 0,2.37936 -1.92723,4.30665 -4.3065,4.30665 -2.37822,0 -4.30651,-1.92729 -4.30651,-4.30665 0,-2.37832 1.92829,-4.30666 4.30651,-4.30666 z m -32.7841,13.58278 c 1.67962,-1.68704 4.40769,-1.68283 6.08941,9.9e-4 1.6775,1.67756 1.68171,4.41097 0,6.0896 -1.68384,1.68072 -4.40979,1.68388 -6.09257,-0.004 -1.68065,-1.67966 -1.67961,-4.40254 0.003,-6.08644 z m -13.5802,32.78626 c -0.005,-2.38041 1.92513,-4.30666 4.30652,-4.30666 2.37506,9.9e-4 4.30754,1.92835 4.30754,4.30666 0,2.38146 -1.92616,4.30666 -4.31387,4.30666 -2.37506,0 -4.30019,-1.92625 -4.30019,-4.30666 z m 19.66645,32.78837 c -1.68068,1.67966 -4.40347,1.67966 -6.08518,-0.002 -1.687,-1.68179 -1.687,-4.40889 0,-6.09384 1.67961,-1.67649 4.40979,-1.68281 6.0894,0 1.68065,1.686 1.68065,4.40888 -0.004,6.09594 z m 26.69785,13.57751 c -2.37928,0.002 -4.30651,-1.92519 -4.30756,-4.30771 9.8e-4,-2.37303 1.92828,-4.30561 4.30651,-4.30561 2.38032,0 4.30545,1.92624 4.30545,4.31192 0,2.37621 -1.92618,4.29928 -4.3044,4.3014 z m 32.78724,-13.57858 c -1.68276,1.68284 -4.41188,1.68073 -6.09677,0 -1.67644,-1.68282 -1.67855,-4.40991 0,-6.0917 1.687,-1.68495 4.40979,-1.68495 6.09677,0.002 1.68173,1.68178 1.67962,4.40677 0,6.08959 z m 10.20625,-15.05486 c -1.92619,4.68916 -15.84042,2.25502 -19.41674,5.84724 -3.55837,3.57852 -1.05791,17.41421 -5.71637,19.36047 -4.67847,1.95364 -12.79415,-9.60489 -17.86143,-9.5933 -5.04728,0.0136 -13.06602,11.56697 -17.735,9.64599 -4.68479,-1.92836 -2.25072,-15.83675 -5.84387,-19.41316 -3.57841,-3.56273 -17.41573,-1.06323 -19.35878,-5.72186 -1.95251,-4.67651 9.60668,-12.79141 9.59299,-17.85782 -0.0138,-5.04745 -11.56869,-13.06961 -9.64566,-17.73877 1.92829,-4.68494 15.83726,-2.24764 19.41249,-5.83986 3.56049,-3.57851 1.0632,-17.42158 5.72166,-19.3668 4.67636,-1.95259 12.78993,9.61332 17.85617,9.59857 5.05042,-0.0126 13.07127,-11.56907 17.73816,-9.64809 4.68584,1.92941 2.24756,15.84096 5.83964,19.41632 3.57736,3.55957 17.41784,1.05585 19.36299,5.71553 1.95359,4.67652 -9.61088,12.79352 -9.59614,17.8631 0.0148,5.04849 11.56973,13.06433 9.64989,17.73244 z m -0.9357,-13.42472 c -2.37612,-9.9e-4 -4.30336,-1.92626 -4.30652,-4.30667 0,-2.38146 1.92619,-4.30666 4.30968,-4.30771 2.37821,0 4.30335,1.92835 4.30651,4.30666 10e-4,2.38041 -1.92935,4.30772 -4.30967,4.30772 z"
   id="path416"
   style="stroke-width:0.999996" />
<path
   fill="none"
   d="m 201.36241,140.5722 c -1.94514,-4.65968 -15.78562,-2.15596 -19.36298,-5.71553 -3.59208,-3.57536 -1.1538,-17.48797 -5.83966,-19.41632 -4.66687,-1.91993 -12.6877,9.63756 -17.73814,9.64809 -5.06835,0.0146 -13.18086,-11.55116 -17.85618,-9.59857 -4.65844,1.94522 -2.16115,15.78722 -5.72165,19.3668 -3.57524,3.59222 -17.48422,1.15492 -19.41249,5.83986 -1.92092,4.66916 9.63406,12.69132 9.64566,17.73877 0.0136,5.06851 -11.54551,13.18237 -9.59299,17.85782 1.94305,4.65863 15.78142,2.15913 19.35876,5.72186 3.59316,3.57641 1.1591,17.4848 5.84389,19.41316 4.66898,1.91887 12.68772,-9.6344 17.73499,-9.64599 5.06939,-0.0115 13.18297,11.548 17.86144,9.5933 4.65845,-1.94626 2.158,-15.78301 5.71637,-19.36047 3.5763,-3.59222 17.49054,-1.15808 19.41672,-5.84724 1.9188,-4.66914 -9.63617,-12.68395 -9.64987,-17.73244 -0.0159,-5.07063 11.54973,-13.18658 9.59613,-17.8631 z m -20.96672,26.96746 c -5.02724,12.13284 -18.9436,17.89261 -31.07498,12.86941 -12.13663,-5.02743 -17.89725,-18.94004 -12.87211,-31.07602 5.02726,-12.13706 18.94149,-17.89684 31.07392,-12.87152 12.13241,5.02321 17.89831,18.93794 12.87317,31.07813 z"
   id="path418"
   style="stroke-width:0.999996" />
<path
   fill="none"
   d="m 167.52252,136.46153 c -12.13453,-5.02742 -26.04878,0.73446 -31.07392,12.87152 -5.02725,12.13809 0.73548,26.04964 12.87211,31.07602 12.13348,5.02532 26.04877,-0.73657 31.07498,-12.86941 5.02514,-12.14019 -0.74076,-26.05492 -12.87317,-31.07813 z m -23.54937,18.67345 c 0.36669,-1.59539 1.95357,-2.59434 3.54678,-2.22448 1.6027,0.35934 2.59739,1.94944 2.23071,3.54481 -0.36248,1.59537 -1.95358,2.59431 -3.54573,2.22761 -1.59323,-0.36458 -2.59741,-1.95153 -2.23176,-3.54794 z m 7.02719,13.00532 c -1.27815,1.01792 -3.14638,0.81349 -4.16637,-0.46365 -1.01894,-1.28345 -0.8103,-3.14544 0.47207,-4.16336 1.27814,-1.02844 3.14005,-0.81349 4.16319,0.46683 1.01894,1.27503 0.81137,3.14436 -0.46889,4.16018 z m -0.39198,-19.10231 c -0.70809,-1.47314 -0.0928,-3.24765 1.38352,-3.95576 1.47097,-0.71128 3.24649,-0.0906 3.95037,1.38251 0.71862,1.47631 0.0969,3.2466 -1.38143,3.95893 -1.46992,0.70706 -3.24331,0.0895 -3.95246,-1.38568 z m 7.81221,24.21509 c -1.63746,0 -2.96303,-1.32773 -2.96303,-2.96313 0,-1.63753 1.32768,-2.96316 2.96303,-2.96316 1.63535,0 2.96302,1.32774 2.96302,2.96316 0,1.6354 -1.32662,2.96313 -2.96302,2.96313 z m 0,-11.85358 c -1.63746,0 -2.96303,-1.32773 -2.96303,-2.96315 0,-1.63542 1.32768,-2.96313 2.96303,-2.96313 1.63535,0 2.96302,1.32877 2.96302,2.96313 9.9e-4,1.63542 -1.32662,2.96315 -2.96302,2.96315 z m 3.85658,-10.97583 c -1.47098,-0.71129 -2.09161,-2.48052 -1.38247,-3.95893 0.7123,-1.47104 2.48043,-2.09484 3.95773,-1.38251 1.47099,0.70811 2.09162,2.48052 1.38247,3.95154 -0.7102,1.47947 -2.48044,2.09696 -3.95773,1.3899 z m 7.7279,17.25193 c -1.01894,1.27819 -2.88295,1.48579 -4.16215,0.46574 -1.28132,-1.01896 -1.491,-2.8841 -0.46785,-4.16439 1.02105,-1.28137 2.88189,-1.48789 4.16426,-0.46892 1.2771,1.02108 1.48994,2.88517 0.46574,4.16757 z m 0.6354,-8.99162 c -1.59954,0.36671 -3.18433,-0.6333 -3.55101,-2.22763 -0.36353,-1.59746 0.63541,-3.18335 2.2307,-3.549 1.59321,-0.3625 3.18431,0.63435 3.54785,2.23184 0.36563,1.5922 -0.63539,3.18019 -2.22754,3.54479 z"
   id="path420"
   style="stroke-width:0.999996" />
<ellipse
   cx="158.42059"
   cy="158.43529"
   id="circle422"
   style="stroke-width:0.999996"
   rx="2.9640865"
   ry="2.9641881" />
<ellipse
   cx="158.42059"
   cy="170.28889"
   id="circle424"
   style="stroke-width:0.999996"
   rx="2.9640865"
   ry="2.9641881" />
<path
   d="m 169.53826,163.50803 c -1.28235,-1.01897 -3.14427,-0.81245 -4.16425,0.46892 -1.02317,1.28029 -0.81243,3.14543 0.46783,4.16439 1.27921,1.02005 3.14217,0.81245 4.16216,-0.46574 1.02525,-1.2824 0.81241,-3.14649 -0.46574,-4.16757 z"
   id="path426"
   style="stroke-width:0.999996" />
<path
   d="m 169.32014,152.90629 c -1.59743,0.36566 -2.59423,1.95365 -2.2307,3.54902 0.36669,1.59642 1.95359,2.59431 3.55101,2.22761 1.59215,-0.36458 2.59317,-1.95258 2.22754,-3.54479 -0.36248,-1.59854 -1.95464,-2.59433 -3.54785,-2.23184 z"
   id="path428"
   style="stroke-width:0.999996" />
<path
   d="m 166.23488,149.03484 c 0.7102,-1.47104 0.0895,-3.24343 -1.38247,-3.95156 -1.47519,-0.71444 -3.24543,-0.0895 -3.95773,1.38252 -0.71021,1.47629 -0.0896,3.24764 1.38247,3.95892 1.47729,0.70601 3.24754,0.0885 3.95773,-1.38988 z"
   id="path430"
   style="stroke-width:0.999996" />
<path
   d="m 155.94329,146.46474 c -0.70387,-1.47209 -2.47938,-2.09274 -3.95036,-1.38251 -1.47625,0.70811 -2.0916,2.48052 -1.38352,3.95576 0.71019,1.47419 2.48148,2.09169 3.95457,1.38462 1.4752,-0.71127 2.09688,-2.48052 1.37931,-3.95787 z"
   id="path432"
   style="stroke-width:0.999996" />
<path
   d="m 149.75169,156.45531 c 0.36669,-1.59747 -0.62906,-3.18547 -2.23071,-3.54481 -1.59426,-0.36986 -3.1822,0.6312 -3.54677,2.22448 -0.3667,1.59747 0.63747,3.18336 2.23175,3.54794 1.59322,0.3667 3.18327,-0.6333 3.54573,-2.22761 z"
   id="path434"
   style="stroke-width:0.999996" />
<path
   d="m 147.30604,163.51224 c -1.28237,1.01793 -1.49101,2.8799 -0.47207,4.16336 1.01999,1.27925 2.88823,1.48157 4.16638,0.46364 1.28131,-1.01581 1.48783,-2.88409 0.46888,-4.16019 -1.02209,-1.28135 -2.88505,-1.49526 -4.16319,-0.46681 z"
   id="path436"
   style="stroke-width:0.999996" />
</svg>
